<?xml version="1.0" encoding="UTF-8"?>
<!-- Generated by Pixelmator Pro 3.7 -->
<svg width="3300" height="2200" viewBox="0 0 3300 2200" xmlns="http://www.w3.org/2000/svg">
    <g id="Notes">
        <path id="artboard" fill="#ffffff" stroke="none" d="M 0 0 L 3300 0 L 3300 2200 L 0 2200 Z"/>
        <path id="Path" fill="none" stroke="#000000" stroke-width="0.5" d="M 263 292 L 3036 292"/>
        <text id="WeightScale-Variations" xml:space="preserve" x="261" y="326" font-family="Helvetica" font-size="13" font-weight="700" fill="#000000">Weight/Scale Variations</text>
        <text id="Ultralight" xml:space="preserve" x="531" y="326" font-family="Helvetica" font-size="13" fill="#000000">Ultralight</text>
        <text id="Thin" xml:space="preserve" x="840" y="326" font-family="Helvetica" font-size="13" fill="#000000">Thin</text>
        <text id="Light" xml:space="preserve" x="1136" y="326" font-family="Helvetica" font-size="13" fill="#000000">Light</text>
        <text id="Regular" xml:space="preserve" x="1424" y="326" font-family="Helvetica" font-size="13" fill="#000000">Regular</text>
        <text id="Medium" xml:space="preserve" x="1720" y="326" font-family="Helvetica" font-size="13" fill="#000000">Medium</text>
        <text id="Semibold" xml:space="preserve" x="2013" y="326" font-family="Helvetica" font-size="13" fill="#000000">Semibold</text>
        <text id="Bold" xml:space="preserve" x="2323" y="326" font-family="Helvetica" font-size="13" fill="#000000">Bold</text>
        <text id="Heavy" xml:space="preserve" x="2615" y="326" font-family="Helvetica" font-size="13" fill="#000000">Heavy</text>
        <text id="Black" xml:space="preserve" x="2914" y="326" font-family="Helvetica" font-size="13" fill="#000000">Black</text>
        <path id="path3" fill="none" stroke="#000000" stroke-width="0.5" d="M 263 1903 L 3036 1903"/>
        <g id="Group">
            <path id="path4" fill="#000000" stroke="none" d="M 272.248047 1933.830078 C 276.603516 1933.830078 280.138672 1930.304688 280.138672 1925.949219 C 280.138672 1921.59375 276.603516 1918.068359 272.248047 1918.068359 C 267.902344 1918.068359 264.367188 1921.59375 264.367188 1925.949219 C 264.367188 1930.304688 267.902344 1933.830078 272.248047 1933.830078 Z M 272.248047 1932.345703 C 268.712891 1932.345703 265.861328 1929.484375 265.861328 1925.949219 C 265.861328 1922.414063 268.712891 1919.552734 272.248047 1919.552734 C 275.783203 1919.552734 278.644531 1922.414063 278.644531 1925.949219 C 278.644531 1929.484375 275.783203 1932.345703 272.248047 1932.345703 Z M 268.654266 1925.949219 C 268.654266 1926.378906 268.957001 1926.671875 269.406219 1926.671875 L 271.505829 1926.671875 L 271.505829 1928.791016 C 271.505829 1929.230469 271.798798 1929.533203 272.228485 1929.533203 C 272.677704 1929.533203 272.970673 1929.230469 272.970673 1928.791016 L 272.970673 1926.671875 L 275.089813 1926.671875 C 275.529266 1926.671875 275.832001 1926.378906 275.832001 1925.949219 C 275.832001 1925.509766 275.529266 1925.207031 275.089813 1925.207031 L 272.970673 1925.207031 L 272.970673 1923.097656 C 272.970673 1922.648438 272.677704 1922.345703 272.228485 1922.345703 C 271.798798 1922.345703 271.505829 1922.648438 271.505829 1923.097656 L 271.505829 1925.207031 L 269.406219 1925.207031 C 268.957031 1925.207031 268.654266 1925.509766 268.654266 1925.949219 Z"/>
        </g>
        <g id="g1">
            <path id="path5" fill="#000000" stroke="none" d="M 293.214966 1935.910156 C 298.713013 1935.910156 303.175934 1931.447266 303.175934 1925.949219 C 303.175934 1920.451172 298.713013 1915.988281 293.214966 1915.988281 C 287.716949 1915.988281 283.254028 1920.451172 283.254028 1925.949219 C 283.254028 1931.447266 287.716949 1935.910156 293.214966 1935.910156 Z M 293.214966 1934.25 C 288.625153 1934.25 284.914215 1930.539063 284.914215 1925.949219 C 284.914215 1921.359375 288.625153 1917.648438 293.214966 1917.648438 C 297.80481 1917.648438 301.515747 1921.359375 301.515747 1925.949219 C 301.515747 1930.539063 297.80481 1934.25 293.214966 1934.25 Z M 288.683746 1925.949219 C 288.683746 1926.427734 289.015778 1926.75 289.513824 1926.75 L 292.384918 1926.75 L 292.384918 1929.630859 C 292.384918 1930.119141 292.716949 1930.460938 293.195465 1930.460938 C 293.683746 1930.460938 294.025543 1930.128906 294.025543 1929.630859 L 294.025543 1926.75 L 296.906403 1926.75 C 297.394684 1926.75 297.736481 1926.427734 297.736481 1925.949219 C 297.736481 1925.460938 297.394684 1925.119141 296.906403 1925.119141 L 294.025543 1925.119141 L 294.025543 1922.248047 C 294.025543 1921.75 293.683746 1921.408203 293.195465 1921.408203 C 292.716949 1921.408203 292.384918 1921.75 292.384918 1922.248047 L 292.384918 1925.119141 L 289.513824 1925.119141 C 289.015778 1925.119141 288.683746 1925.460938 288.683746 1925.949219 Z"/>
        </g>
        <g id="g2">
            <path id="path6" fill="#000000" stroke="none" d="M 319.894714 1938.664063 C 326.916168 1938.664063 332.619293 1932.970703 332.619293 1925.949219 C 332.619293 1918.927734 326.916168 1913.224609 319.894714 1913.224609 C 312.87323 1913.224609 307.179871 1918.927734 307.179871 1925.949219 C 307.179871 1932.970703 312.87323 1938.664063 319.894714 1938.664063 Z M 319.894714 1936.847656 C 313.869293 1936.847656 308.996246 1931.974609 308.996246 1925.949219 C 308.996246 1919.923828 313.869293 1915.050781 319.894714 1915.050781 C 325.920105 1915.050781 330.793152 1919.923828 330.793152 1925.949219 C 330.793152 1931.974609 325.920105 1936.847656 319.894714 1936.847656 Z M 314.12323 1925.949219 C 314.12323 1926.466797 314.494324 1926.828125 315.041199 1926.828125 L 318.986511 1926.828125 L 318.986511 1930.783203 C 318.986511 1931.320313 319.357605 1931.701172 319.875183 1931.701172 C 320.412292 1931.701172 320.783386 1931.330078 320.783386 1930.783203 L 320.783386 1926.828125 L 324.738464 1926.828125 C 325.275574 1926.828125 325.656433 1926.466797 325.656433 1925.949219 C 325.656433 1925.402344 325.285339 1925.03125 324.738464 1925.03125 L 320.783386 1925.03125 L 320.783386 1921.085938 C 320.783386 1920.539063 320.412292 1920.158203 319.875183 1920.158203 C 319.357605 1920.158203 318.986511 1920.539063 318.986511 1921.085938 L 318.986511 1925.03125 L 315.041199 1925.03125 C 314.494324 1925.03125 314.12323 1925.402344 314.12323 1925.949219 Z"/>
        </g>
        <text id="Design-Variations" xml:space="preserve" x="261" y="1957" font-family="Helvetica" font-size="13" font-weight="700" fill="#000000">Design Variations</text>
        <text id="Symbols-are-supported-in" xml:space="preserve" x="261" y="1975" font-family="Helvetica" font-size="13" fill="#000000">Symbols are supported in up to nine weights and three scales.</text>
        <text id="For-optimal-layout-with" xml:space="preserve" x="261" y="1993" font-family="Helvetica" font-size="13" fill="#000000">For optimal layout with text and other symbols, vertically align</text>
        <text id="symbols-with-the-adjacent" xml:space="preserve" x="261" y="2011" font-family="Helvetica" font-size="13" fill="#000000">symbols with the adjacent text.</text>
        <path id="path7" fill="none" stroke="#00aeef" stroke-width="0.5" d="M 776 1919 L 776 1933"/>
        <g id="g3">
            <path id="path8" fill="#000000" stroke="none" d="M 779.310547 1933.15625 C 779.828125 1933.15625 780.082031 1932.960938 780.267578 1932.414063 L 781.527344 1928.966797 L 787.289063 1928.966797 L 788.548828 1932.414063 C 788.734375 1932.960938 788.988281 1933.15625 789.496094 1933.15625 C 790.013672 1933.15625 790.345703 1932.84375 790.345703 1932.355469 C 790.345703 1932.189453 790.316406 1932.033203 790.238281 1931.828125 L 785.658203 1919.630859 C 785.433594 1919.035156 785.033203 1918.732422 784.408203 1918.732422 C 783.802734 1918.732422 783.392578 1919.025391 783.177734 1919.621094 L 778.597656 1931.837891 C 778.519531 1932.042969 778.490234 1932.199219 778.490234 1932.365234 C 778.490234 1932.853516 778.802734 1933.15625 779.310547 1933.15625 Z M 782.005859 1927.482422 L 784.378906 1920.910156 L 784.427734 1920.910156 L 786.800781 1927.482422 Z"/>
        </g>
        <path id="path9" fill="none" stroke="#00aeef" stroke-width="0.5" d="M 792.835999 1919 L 792.835999 1933"/>
        <text id="Margins" xml:space="preserve" x="774" y="1957" font-family="Helvetica" font-size="13" font-weight="700" fill="#000000">Margins</text>
        <text id="Leading-and-trailing-margins" xml:space="preserve" x="774" y="1975" font-family="Helvetica" font-size="13" fill="#000000">Leading and trailing margins on the left and right side of each symbol</text>
        <text id="can-be-adjusted-by" xml:space="preserve" x="774" y="1993" font-family="Helvetica" font-size="13" fill="#000000">can be adjusted by modifying the x-location of the margin guidelines.</text>
        <text id="Modifications-are-automatically-applied" xml:space="preserve" x="774" y="2011" font-family="Helvetica" font-size="13" fill="#000000">Modifications are automatically applied proportionally to all</text>
        <text id="scales-and-weights" xml:space="preserve" x="774" y="2029" font-family="Helvetica" font-size="13" fill="#000000">scales and weights.</text>
        <g id="g4">
            <path id="path10" fill="#000000" stroke="none" d="M 1291.841797 1934.865234 L 1293.541016 1936.574219 C 1294.400391 1937.443359 1295.386719 1937.384766 1296.314453 1936.359375 L 1307.007813 1924.572266 L 1306.041016 1923.595703 L 1295.425781 1935.275391 C 1295.074219 1935.675781 1294.742188 1935.773438 1294.273438 1935.304688 L 1293.101563 1934.142578 C 1292.632813 1933.683594 1292.740234 1933.341797 1293.140625 1932.980469 L 1304.615234 1922.179688 L 1303.638672 1921.212891 L 1292.046875 1932.101563 C 1291.060547 1933.019531 1290.982422 1933.996094 1291.841797 1934.865234 Z M 1298.257813 1916.671875 C 1297.837891 1917.082031 1297.808594 1917.658203 1298.042969 1918.048828 C 1298.277344 1918.410156 1298.736328 1918.644531 1299.380859 1918.478516 C 1300.845703 1918.136719 1302.369141 1918.078125 1303.794922 1919.015625 L 1303.208984 1920.470703 C 1302.867188 1921.300781 1303.042969 1921.886719 1303.580078 1922.433594 L 1305.875 1924.748047 C 1306.363281 1925.236328 1306.773438 1925.255859 1307.339844 1925.158203 L 1308.404297 1924.962891 L 1309.068359 1925.636719 L 1309.029297 1926.193359 C 1308.990234 1926.691406 1309.117188 1927.072266 1309.605469 1927.550781 L 1310.367188 1928.292969 C 1310.845703 1928.771484 1311.460938 1928.800781 1311.929688 1928.332031 L 1314.839844 1925.412109 C 1315.308594 1924.943359 1315.289063 1924.347656 1314.810547 1923.869141 L 1314.039063 1923.107422 C 1313.560547 1922.628906 1313.189453 1922.472656 1312.710938 1922.511719 L 1312.134766 1922.560547 L 1311.490234 1921.925781 L 1311.734375 1920.802734 C 1311.861328 1920.236328 1311.705078 1919.796875 1311.119141 1919.210938 L 1308.921875 1917.023438 C 1305.582031 1913.703125 1301.148438 1913.78125 1298.257813 1916.671875 Z M 1299.751953 1917.042969 C 1302.183594 1915.265625 1305.474609 1915.568359 1307.701172 1917.794922 L 1310.132813 1920.207031 C 1310.367188 1920.441406 1310.40625 1920.626953 1310.337891 1920.96875 L 1310.015625 1922.453125 L 1311.519531 1923.9375 L 1312.505859 1923.878906 C 1312.759766 1923.869141 1312.837891 1923.888672 1313.033203 1924.083984 L 1313.609375 1924.660156 L 1311.167969 1927.101563 L 1310.591797 1926.525391 C 1310.396484 1926.330078 1310.367188 1926.251953 1310.376953 1925.988281 L 1310.445313 1925.011719 L 1308.951172 1923.527344 L 1307.427734 1923.78125 C 1307.105469 1923.849609 1306.958984 1923.820313 1306.714844 1923.585938 L 1304.712891 1921.583984 C 1304.458984 1921.349609 1304.429688 1921.183594 1304.585938 1920.8125 L 1305.464844 1918.722656 C 1303.902344 1917.267578 1301.871094 1916.642578 1299.839844 1917.238281 C 1299.683594 1917.277344 1299.625 1917.150391 1299.751953 1917.042969 Z"/>
        </g>
        <text id="Exporting" xml:space="preserve" x="1287" y="1957" font-family="Helvetica" font-size="13" font-weight="700" fill="#000000">Exporting</text>
        <text id="Symbols-should-be-outlined" xml:space="preserve" x="1287" y="1975" font-family="Helvetica" font-size="13" fill="#000000">Symbols should be outlined when exporting to ensure the</text>
        <text id="design-is-preserved-when" xml:space="preserve" x="1287" y="1993" font-family="Helvetica" font-size="13" fill="#000000">design is preserved when submitting to Xcode.</text>
        <text id="template-version" xml:space="preserve" x="2948" y="1937" font-family="Helvetica" font-size="13" fill="#000000">Template v.6.0</text>
        <text id="Requires-Xcode-16-or" xml:space="preserve" x="2861" y="1955" font-family="Helvetica" font-size="13" fill="#000000">Requires Xcode 16 or greater</text>
        <text id="Generated-from-document" xml:space="preserve" x="2880" y="1973" font-family="Helvetica" font-size="13" fill="#000000">Generated from document</text>
        <text id="Typeset-at-1000-points" xml:space="preserve" x="2898" y="1991" font-family="Helvetica" font-size="13" fill="#000000">Typeset at 100.0 points</text>
        <text id="Small" xml:space="preserve" x="261" y="730" font-family="Helvetica" font-size="13" fill="#000000">Small</text>
        <text id="text1" xml:space="preserve" x="261" y="1160" font-family="Helvetica" font-size="13" fill="#000000">Medium</text>
        <text id="Large" xml:space="preserve" x="261" y="1590" font-family="Helvetica" font-size="13" fill="#000000">Large</text>
    </g>
    <g id="Guides">
        <g id="H-reference">
            <path id="path11" fill="#27aae1" stroke="none" d="M 339.993652 696 L 342.637756 696 L 368.328094 628.867676 L 369.030304 628.867676 L 369.030304 625.541016 L 367.122589 625.541016 Z M 350.688507 671.520142 L 385.981506 671.520142 L 385.231506 669.271484 L 351.438507 669.271484 Z M 394.119598 696 L 396.763702 696 L 369.638214 625.541016 L 368.432587 625.541016 L 368.432587 628.867676 Z"/>
        </g>
        <path id="Baseline-S" fill="none" stroke="#27aae1" stroke-width="0.5" d="M 263 696 L 3036 696"/>
        <path id="Capline-S" fill="none" stroke="#27aae1" stroke-width="0.5" d="M 263 625.541016 L 3036 625.541016"/>
        <g id="g5">
            <path id="path12" fill="#27aae1" stroke="none" d="M 339.993652 1126 L 342.637756 1126 L 368.328094 1058.867676 L 369.030304 1058.867676 L 369.030304 1055.541016 L 367.122589 1055.541016 Z M 350.688507 1101.520142 L 385.981506 1101.520142 L 385.231506 1099.271484 L 351.438507 1099.271484 Z M 394.119598 1126 L 396.763702 1126 L 369.638214 1055.541016 L 368.432587 1055.541016 L 368.432587 1058.867676 Z"/>
        </g>
        <path id="Baseline-M" fill="none" stroke="#27aae1" stroke-width="0.5" d="M 263 1126 L 3036 1126"/>
        <path id="Capline-M" fill="none" stroke="#27aae1" stroke-width="0.5" d="M 263 1055.540039 L 3036 1055.540039"/>
        <g id="g6">
            <path id="path13" fill="#27aae1" stroke="none" d="M 339.993652 1556 L 342.637756 1556 L 368.328094 1488.867676 L 369.030304 1488.867676 L 369.030304 1485.541016 L 367.122589 1485.541016 Z M 350.688507 1531.52002 L 385.981506 1531.52002 L 385.231506 1529.271484 L 351.438507 1529.271484 Z M 394.119598 1556 L 396.763702 1556 L 369.638214 1485.541016 L 368.432587 1485.541016 L 368.432587 1488.867676 Z"/>
        </g>
        <path id="Baseline-L" fill="none" stroke="#27aae1" stroke-width="0.5" d="M 263 1556 L 3036 1556"/>
        <path id="Capline-L" fill="none" stroke="#27aae1" stroke-width="0.5" d="M 263 1485.540039 L 3036 1485.540039"/>
        <path id="right-margin-Black-S" fill="none" stroke="#00aeef" stroke-width="0.5" d="M 2979.100098 600.784912 L 2979.100098 720.120972"/>
        <path id="left-margin-Black-S" fill="none" stroke="#00aeef" stroke-width="0.5" d="M 2887.699951 600.784912 L 2887.699951 720.120972"/>
        <path id="right-margin-Regular-S" fill="none" stroke="#00aeef" stroke-width="0.5" d="M 1492.130005 600.784912 L 1492.130005 720.120972"/>
        <path id="left-margin-Regular-S" fill="none" stroke="#00aeef" stroke-width="0.5" d="M 1407.560059 600.784912 L 1407.560059 720.120972"/>
        <path id="right-margin-Ultralight-S" fill="none" stroke="#00aeef" stroke-width="0.5" d="M 600.133972 600.784912 L 600.133972 720.120972"/>
        <path id="left-margin-Ultralight-S" fill="none" stroke="#00aeef" stroke-width="0.5" d="M 519.288025 600.784912 L 519.288025 720.120972"/>
    </g>
    <g id="Symbols">
        <g id="Black-S">
            <path id="path14" fill="none" stroke="#000000" stroke-width="0.5" d="M 2912.699951 704.154297 L 2954.106201 704.154297 C 2963.676514 704.154297 2969.340576 698.490234 2969.340576 688.919922 L 2969.340576 654.251953 C 2969.340576 647.074219 2968.071045 643.167969 2963.432373 638.529297 L 2948.246826 623.34375 C 2943.608154 618.705078 2939.701904 617.435547 2932.52417 617.435547 L 2912.699951 617.435547 C 2903.129639 617.435547 2897.465576 623.099609 2897.465576 632.669922 L 2897.465576 688.919922 C 2897.465576 698.490234 2903.129639 704.154297 2912.699951 704.154297 Z M 2914.946045 689.994141 C 2912.504639 689.994141 2911.625732 688.919922 2911.625732 686.673828 L 2911.625732 634.916016 C 2911.625732 632.669922 2912.504639 631.595703 2914.946045 631.595703 L 2927.690186 631.595703 L 2927.690186 646.292969 C 2927.690186 655.082031 2931.694092 659.085938 2940.483154 659.085938 L 2955.18042 659.085938 L 2955.18042 686.673828 C 2955.18042 688.919922 2954.301514 689.994141 2951.860107 689.994141 Z M 2941.264404 648.34375 C 2939.408936 648.34375 2938.432373 647.367188 2938.432373 645.511719 L 2938.432373 631.888672 L 2954.887451 648.34375 Z"/>
            <path id="PNG" fill="#000000" fill-rule="evenodd" stroke="none" d="M 2948.72168 687.345947 C 2947.713867 687.345947 2946.814453 687.195313 2946.023438 686.894165 C 2945.232422 686.592896 2944.561523 686.154175 2944.010742 685.577759 C 2943.459961 685.001343 2943.039551 684.29895 2942.749512 683.470337 C 2942.459473 682.641846 2942.314453 681.703003 2942.314453 680.653931 L 2942.314453 680.636719 C 2942.314453 679.253662 2942.567871 678.064453 2943.074707 677.069336 C 2943.581543 676.074097 2944.305176 675.309082 2945.245605 674.774048 C 2946.186035 674.239014 2947.306641 673.971436 2948.607422 673.971436 C 2949.667969 673.971436 2950.621582 674.164673 2951.468262 674.551147 C 2952.314941 674.937622 2953.000488 675.468872 2953.524902 676.144897 C 2954.049316 676.820923 2954.355469 677.600464 2954.443115 678.483398 L 2954.451904 678.571289 L 2950.786865 678.571289 L 2950.768799 678.491821 C 2950.67334 678.047607 2950.424316 677.689941 2950.02124 677.418945 C 2949.618164 677.147949 2949.147217 677.012451 2948.608154 677.012451 C 2948.080811 677.012451 2947.631104 677.154053 2947.259033 677.437256 C 2946.886719 677.720459 2946.602539 678.128296 2946.406006 678.660767 C 2946.209717 679.193237 2946.111328 679.834351 2946.111328 680.584351 L 2946.111328 680.601563 C 2946.111328 681.175781 2946.174316 681.691162 2946.300293 682.147583 C 2946.42627 682.604126 2946.60791 682.993042 2946.845215 683.314575 C 2947.08252 683.636108 2947.366699 683.88147 2947.697754 684.050903 C 2948.028809 684.220215 2948.399414 684.304932 2948.80957 684.304932 C 2949.213867 684.304932 2949.574219 684.234985 2949.890381 684.094971 C 2950.206543 683.955078 2950.459717 683.755249 2950.650391 683.495361 C 2950.84082 683.235474 2950.953857 682.933105 2950.989258 682.587891 L 2951.006836 682.414185 L 2949.060547 682.414185 L 2949.060547 679.931519 L 2954.592773 679.931519 L 2954.592773 681.603516 C 2954.592773 682.504272 2954.460938 683.308838 2954.197266 684.01709 C 2953.933594 684.725464 2953.54834 685.327026 2953.041504 685.821899 C 2952.534668 686.31665 2951.917969 686.694458 2951.191406 686.955078 C 2950.464844 687.215576 2949.641602 687.345947 2948.72168 687.345947 Z M 2926.793701 687 L 2926.793701 674.317383 L 2929.694824 674.317383 L 2935.472168 681.942261 L 2932.819092 680.619141 L 2934.641602 680.619141 L 2934.641602 674.317383 L 2938.166748 674.317383 L 2938.166748 687 L 2935.292236 687 L 2929.48877 679.269653 L 2932.141357 680.601196 L 2930.318848 680.601196 L 2930.318848 687 Z M 2913.987061 683.537109 L 2913.987061 680.786133 L 2916.904785 680.786133 C 2917.52002 680.786133 2918.001953 680.632324 2918.350586 680.324707 C 2918.699219 680.01709 2918.873535 679.561523 2918.873535 678.958008 L 2918.873535 678.94043 C 2918.873535 678.331055 2918.699219 677.875488 2918.350586 677.57373 C 2918.001953 677.271973 2917.52002 677.121094 2916.904785 677.121094 L 2913.987061 677.121094 L 2913.987061 674.317383 L 2917.79248 674.317383 C 2918.782715 674.317383 2919.639648 674.507813 2920.363281 674.888672 C 2921.086914 675.269531 2921.646484 675.805664 2922.041992 676.49707 C 2922.4375 677.188477 2922.635254 678.00293 2922.635254 678.94043 L 2922.635254 678.958008 C 2922.635254 679.895508 2922.4375 680.707031 2922.041992 681.392578 C 2921.646484 682.078125 2921.086914 682.606934 2920.363281 682.979004 C 2919.639648 683.351074 2918.782715 683.537109 2917.79248 683.537109 Z M 2912.123535 687 L 2912.123535 674.317383 L 2915.850098 674.317383 L 2915.850098 687 Z"/>
        </g>
        <g id="Regular-S">
            <path id="path15" fill="none" stroke="#000000" stroke-width="0.5" d="M 1429.581543 701.908203 L 1470.060059 701.908203 C 1478.263062 701.908203 1482.364746 697.757813 1482.364746 689.457031 L 1482.364746 655.423828 C 1482.364746 650.052734 1481.778809 647.708984 1478.409546 644.242188 L 1458.145874 623.539063 C 1454.972046 620.267578 1452.335449 619.583984 1447.647949 619.583984 L 1429.581543 619.583984 C 1421.378418 619.583984 1417.325562 623.734375 1417.325562 632.035156 L 1417.325562 689.457031 C 1417.325562 697.806641 1421.378418 701.908203 1429.581543 701.908203 Z M 1429.92334 694.876953 C 1426.26123 694.876953 1424.356934 692.875 1424.356934 689.359375 L 1424.356934 632.132813 C 1424.356934 628.617188 1426.26123 626.615234 1429.972046 626.615234 L 1446.427246 626.615234 L 1446.427246 648.34375 C 1446.427246 653.421875 1449.015137 656.009766 1454.09314 656.009766 L 1475.284546 656.009766 L 1475.284546 689.359375 C 1475.284546 692.875 1473.380249 694.876953 1469.71814 694.876953 Z M 1454.92334 649.417969 C 1453.556152 649.417969 1452.970215 648.832031 1452.970215 647.464844 L 1452.970215 627.933594 L 1473.966187 649.417969 Z"/>
            <path id="path1" fill="#000000" fill-rule="evenodd" stroke="none" d="M 1464.461426 691.2948 C 1463.582275 691.2948 1462.789429 691.139648 1462.083008 690.829224 C 1461.376587 690.518799 1460.772827 690.073608 1460.271484 689.49353 C 1459.770264 688.913452 1459.384766 688.216187 1459.115112 687.401733 C 1458.845459 686.58728 1458.710693 685.67334 1458.710693 684.659912 L 1458.710693 684.642822 C 1458.710693 683.307251 1458.947998 682.143555 1459.422729 681.151611 C 1459.897461 680.159668 1460.567139 679.390259 1461.431641 678.84314 C 1462.296265 678.296021 1463.306152 678.022583 1464.461426 678.022583 C 1465.400635 678.022583 1466.237305 678.188354 1466.971558 678.519897 C 1467.705933 678.851563 1468.311401 679.315918 1468.787964 679.913208 C 1469.264526 680.510498 1469.585571 681.209229 1469.750977 682.009644 L 1469.769653 682.101074 L 1468.167236 682.101074 L 1468.140503 682.012817 C 1467.881104 681.193237 1467.438354 680.566528 1466.812134 680.132568 C 1466.186035 679.698486 1465.402466 679.481567 1464.461426 679.481567 C 1463.622314 679.481567 1462.893433 679.693359 1462.27478 680.117188 C 1461.65625 680.540894 1461.177124 681.138916 1460.837402 681.911377 C 1460.497681 682.683716 1460.327881 683.594238 1460.327881 684.642822 L 1460.327881 684.659912 C 1460.327881 685.456787 1460.423096 686.174561 1460.613647 686.812988 C 1460.804199 687.451538 1461.079834 687.994995 1461.44043 688.443237 C 1461.801147 688.891479 1462.23645 689.235596 1462.74646 689.475708 C 1463.25647 689.71582 1463.830933 689.835815 1464.469849 689.835815 C 1465.225464 689.835815 1465.888916 689.684937 1466.460327 689.383179 C 1467.031616 689.081421 1467.475464 688.661011 1467.791992 688.121948 C 1468.108398 687.582886 1468.266724 686.956177 1468.266724 686.241577 L 1468.266724 685.9375 L 1464.706421 685.9375 L 1464.706421 684.548828 L 1469.848755 684.548828 L 1469.848755 686.0802 C 1469.848755 686.862915 1469.721558 687.574341 1469.467285 688.2146 C 1469.212891 688.854858 1468.848755 689.405273 1468.374634 689.865845 C 1467.900635 690.326294 1467.332397 690.679565 1466.670166 690.925659 C 1466.007935 691.171753 1465.271729 691.2948 1464.461426 691.2948 Z M 1443.978027 691 L 1443.978027 678.317383 L 1445.516113 678.317383 L 1452.832642 688.810303 L 1451.734863 688.19397 L 1452.538574 688.19397 L 1452.538574 678.317383 L 1454.103027 678.317383 L 1454.103027 691 L 1452.564941 691 L 1445.248535 680.540649 L 1446.346313 681.157104 L 1445.54248 681.157104 L 1445.54248 691 Z M 1431.481201 686.473633 L 1431.481201 685.067383 L 1435.055176 685.067383 C 1435.963379 685.067383 1436.666504 684.831543 1437.164551 684.359863 C 1437.662598 683.888184 1437.911621 683.236328 1437.911621 682.404297 L 1437.911621 682.386719 C 1437.911621 681.548828 1437.662598 680.895508 1437.164551 680.426758 C 1436.666504 679.958008 1435.963379 679.723633 1435.055176 679.723633 L 1431.481201 679.723633 L 1431.481201 678.317383 L 1435.459473 678.317383 C 1436.256348 678.317383 1436.959473 678.487305 1437.568848 678.827148 C 1438.178223 679.166992 1438.657227 679.641602 1439.005859 680.250977 C 1439.354492 680.860352 1439.528809 681.566406 1439.528809 682.369141 L 1439.528809 682.386719 C 1439.528809 683.189453 1439.354492 683.898438 1439.005859 684.513672 C 1438.657227 685.128906 1438.178223 685.609375 1437.568848 685.955078 C 1436.959473 686.300781 1436.256348 686.473633 1435.459473 686.473633 Z M 1430.690186 691 L 1430.690186 678.317383 L 1432.272217 678.317383 L 1432.272217 691 Z"/>
        </g>
        <g id="Ultralight-S">
            <path id="path16" fill="none" stroke="#000000" stroke-width="0.5" d="M 539.039001 701.181641 L 580.38031 701.181641 C 586.948669 701.181641 590.36908 697.712402 590.36908 691.182617 L 590.36908 653.244141 C 590.36908 650.506836 589.874023 649.25293 588.230408 647.602539 L 563.3349 622.67627 C 561.705017 620.994141 560.385193 620.492188 557.695679 620.492188 L 539.039001 620.492188 C 532.606873 620.492188 529.05365 623.961426 529.05365 630.491211 L 529.05365 691.182617 C 529.05365 697.71582 532.515991 701.181641 539.039001 701.181641 Z M 539.153687 698.963867 C 533.947693 698.963867 531.271423 696.280762 531.271423 691.084961 L 531.271423 630.588867 C 531.271423 625.620117 533.947693 622.709961 539.157227 622.709961 L 558.609314 622.709961 L 558.609314 647.163086 C 558.609314 650.788086 560.425171 652.286255 563.732422 652.286255 L 588.193298 652.286255 L 588.193298 691.084961 C 588.193298 696.280762 585.471619 698.963867 580.265503 698.963867 Z M 563.881287 650.099121 C 561.651306 650.099121 560.792908 649.240723 560.792908 647.056152 L 560.792908 623.301758 L 587.601501 650.099121 Z"/>
            <path id="path2" fill="#000000" fill-rule="evenodd" stroke="none" d="M 574.682068 692.184692 C 573.868286 692.184692 573.130005 692.029419 572.467224 691.718872 C 571.804504 691.408325 571.233459 690.963013 570.75415 690.382935 C 570.27478 689.802856 569.907166 689.106934 569.651184 688.295166 C 569.395203 687.483398 569.267212 686.578857 569.267212 685.581543 L 569.267212 685.572144 C 569.267212 684.257935 569.489624 683.119141 569.934387 682.155884 C 570.379211 681.192627 571.007996 680.447998 571.820801 679.921875 C 572.633667 679.395752 573.587402 679.13269 574.682068 679.13269 C 575.511353 679.13269 576.26532 679.278076 576.943909 679.568848 C 577.622498 679.859741 578.192627 680.277832 578.654297 680.823364 C 579.116028 681.368896 579.432129 682.026489 579.602722 682.796021 L 579.620422 682.875977 L 579.183167 682.875977 L 579.164917 682.804321 C 578.894653 681.74939 578.357788 680.943359 577.55426 680.386475 C 576.750732 679.829468 575.793335 679.551025 574.682068 679.551025 C 573.675842 679.551025 572.799988 679.795898 572.054565 680.285645 C 571.309143 680.775513 570.732666 681.470703 570.325073 682.37146 C 569.917419 683.272095 569.713623 684.338989 569.713623 685.572144 L 569.713623 685.581543 C 569.713623 686.519287 569.830566 687.36853 570.064392 688.12915 C 570.298218 688.889771 570.634583 689.540283 571.073547 690.080566 C 571.512512 690.620972 572.036987 691.037109 572.647095 691.328857 C 573.257141 691.620483 573.935669 691.766357 574.682739 691.766357 C 575.633728 691.766357 576.457153 691.549072 577.153137 691.114624 C 577.84906 690.680054 578.387756 690.072632 578.769226 689.292358 C 579.150635 688.512085 579.34137 687.607422 579.34137 686.578247 L 579.34137 686.344727 L 574.692383 686.344727 L 574.692383 685.931641 L 579.785217 685.931641 L 579.785217 686.582397 C 579.785217 687.416138 579.665955 688.175415 579.427368 688.860352 C 579.188782 689.545166 578.845764 690.136597 578.398254 690.634521 C 577.950806 691.132324 577.413635 691.515259 576.786804 691.782959 C 576.159912 692.050781 575.458374 692.184692 574.682068 692.184692 Z M 555.281799 692 L 555.281799 679.317383 L 555.77124 679.317383 L 564.337402 691.382324 L 563.928467 691.151733 L 564.216309 691.151733 L 564.216309 679.317383 L 564.658936 679.317383 L 564.658936 692 L 564.247192 692 L 555.603271 679.844849 L 556.012268 680.075073 L 555.724426 680.075073 L 555.724426 692 Z M 542.976257 686.717529 L 542.976257 686.303223 L 546.658875 686.303223 C 547.778503 686.303223 548.66864 686.009033 549.329285 685.420898 C 549.989929 684.832642 550.320251 684.033081 550.320251 683.022217 L 550.320251 683.004639 C 550.320251 681.987915 549.989929 681.188232 549.329285 680.605713 C 548.66864 680.023071 547.778503 679.731812 546.658875 679.731812 L 542.976257 679.731812 L 542.976257 679.317383 L 546.68927 679.317383 C 547.518616 679.317383 548.237976 679.466919 548.847351 679.766113 C 549.456726 680.06543 549.928955 680.491211 550.264038 681.043701 C 550.599121 681.596191 550.766663 682.24939 550.766663 683.003296 L 550.766663 683.020874 C 550.766663 683.77478 550.599121 684.428223 550.264038 684.981201 C 549.928955 685.534058 549.456726 685.96167 548.847351 686.264038 C 548.237976 686.566406 547.518616 686.717529 546.68927 686.717529 Z M 542.754333 692 L 542.754333 679.317383 L 543.198181 679.317383 L 543.198181 692 Z"/>
        </g>
    </g>
</svg>
