<?xml version="1.0" encoding="UTF-8"?>
<!-- Generated by Pixelmator Pro 3.7 -->
<svg width="3300" height="2200" viewBox="0 0 3300 2200" xmlns="http://www.w3.org/2000/svg">
    <g id="Notes">
        <path id="artboard" fill="#ffffff" stroke="none" d="M 68 -25 L 3368 -25 L 3368 2175 L 68 2175 Z"/>
        <path id="Path" fill="none" stroke="#000000" stroke-width="0.5" d="M 263 292 L 3036 292"/>
        <text id="WeightScale-Variations" xml:space="preserve" x="262" y="324" font-family="Helvetica" font-size="13" font-weight="700" fill="#000000">Weight/Scale Variations</text>
        <text id="Ultralight" xml:space="preserve" x="532.352295" y="324" font-family="Helvetica" font-size="13" fill="#000000">Ultralight</text>
        <text id="Thin" xml:space="preserve" x="841.355469" y="324" font-family="Helvetica" font-size="13" fill="#000000">Thin</text>
        <text id="Light" xml:space="preserve" x="1137.405029" y="324" font-family="Helvetica" font-size="13" fill="#000000">Light</text>
        <text id="Regular" xml:space="preserve" x="1425.237305" y="324" font-family="Helvetica" font-size="13" fill="#000000">Regular</text>
        <text id="Medium" xml:space="preserve" x="1721.381836" y="324" font-family="Helvetica" font-size="13" fill="#000000">Medium</text>
        <text id="Semibold" xml:space="preserve" x="2014.401855" y="324" font-family="Helvetica" font-size="13" fill="#000000">Semibold</text>
        <text id="Bold" xml:space="preserve" x="2324.490479" y="324" font-family="Helvetica" font-size="13" fill="#000000">Bold</text>
        <text id="Heavy" xml:space="preserve" x="2616.075928" y="324" font-family="Helvetica" font-size="13" fill="#000000">Heavy</text>
        <text id="Black" xml:space="preserve" x="2915.105469" y="324" font-family="Helvetica" font-size="13" fill="#000000">Black</text>
        <path id="path1" fill="none" stroke="#000000" stroke-width="0.5" d="M 263 1903 L 3036 1903"/>
        <g id="Group">
            <path id="path2" fill="#000000" stroke="none" d="M 272.248047 1933.830078 C 276.603516 1933.830078 280.138672 1930.304688 280.138672 1925.949219 C 280.138672 1921.59375 276.603516 1918.068359 272.248047 1918.068359 C 267.902344 1918.068359 264.367188 1921.59375 264.367188 1925.949219 C 264.367188 1930.304688 267.902344 1933.830078 272.248047 1933.830078 Z M 272.248047 1932.345703 C 268.712891 1932.345703 265.861328 1929.484375 265.861328 1925.949219 C 265.861328 1922.414063 268.712891 1919.552734 272.248047 1919.552734 C 275.783203 1919.552734 278.644531 1922.414063 278.644531 1925.949219 C 278.644531 1929.484375 275.783203 1932.345703 272.248047 1932.345703 Z M 268.654266 1925.949219 C 268.654266 1926.378906 268.957001 1926.671875 269.406219 1926.671875 L 271.505829 1926.671875 L 271.505829 1928.791016 C 271.505829 1929.230469 271.798798 1929.533203 272.228485 1929.533203 C 272.677704 1929.533203 272.970673 1929.230469 272.970673 1928.791016 L 272.970673 1926.671875 L 275.089813 1926.671875 C 275.529266 1926.671875 275.832001 1926.378906 275.832001 1925.949219 C 275.832001 1925.509766 275.529266 1925.207031 275.089813 1925.207031 L 272.970673 1925.207031 L 272.970673 1923.097656 C 272.970673 1922.648438 272.677704 1922.345703 272.228485 1922.345703 C 271.798798 1922.345703 271.505829 1922.648438 271.505829 1923.097656 L 271.505829 1925.207031 L 269.406219 1925.207031 C 268.957031 1925.207031 268.654266 1925.509766 268.654266 1925.949219 Z"/>
        </g>
        <g id="g1">
            <path id="path3" fill="#000000" stroke="none" d="M 293.214966 1935.910156 C 298.713013 1935.910156 303.175934 1931.447266 303.175934 1925.949219 C 303.175934 1920.451172 298.713013 1915.988281 293.214966 1915.988281 C 287.716949 1915.988281 283.254028 1920.451172 283.254028 1925.949219 C 283.254028 1931.447266 287.716949 1935.910156 293.214966 1935.910156 Z M 293.214966 1934.25 C 288.625153 1934.25 284.914215 1930.539063 284.914215 1925.949219 C 284.914215 1921.359375 288.625153 1917.648438 293.214966 1917.648438 C 297.80481 1917.648438 301.515747 1921.359375 301.515747 1925.949219 C 301.515747 1930.539063 297.80481 1934.25 293.214966 1934.25 Z M 288.683746 1925.949219 C 288.683746 1926.427734 289.015778 1926.75 289.513824 1926.75 L 292.384918 1926.75 L 292.384918 1929.630859 C 292.384918 1930.119141 292.716949 1930.460938 293.195465 1930.460938 C 293.683746 1930.460938 294.025543 1930.128906 294.025543 1929.630859 L 294.025543 1926.75 L 296.906403 1926.75 C 297.394684 1926.75 297.736481 1926.427734 297.736481 1925.949219 C 297.736481 1925.460938 297.394684 1925.119141 296.906403 1925.119141 L 294.025543 1925.119141 L 294.025543 1922.248047 C 294.025543 1921.75 293.683746 1921.408203 293.195465 1921.408203 C 292.716949 1921.408203 292.384918 1921.75 292.384918 1922.248047 L 292.384918 1925.119141 L 289.513824 1925.119141 C 289.015778 1925.119141 288.683746 1925.460938 288.683746 1925.949219 Z"/>
        </g>
        <g id="g2">
            <path id="path4" fill="#000000" stroke="none" d="M 319.894714 1938.664063 C 326.916168 1938.664063 332.619293 1932.970703 332.619293 1925.949219 C 332.619293 1918.927734 326.916168 1913.224609 319.894714 1913.224609 C 312.87323 1913.224609 307.179871 1918.927734 307.179871 1925.949219 C 307.179871 1932.970703 312.87323 1938.664063 319.894714 1938.664063 Z M 319.894714 1936.847656 C 313.869293 1936.847656 308.996246 1931.974609 308.996246 1925.949219 C 308.996246 1919.923828 313.869293 1915.050781 319.894714 1915.050781 C 325.920105 1915.050781 330.793152 1919.923828 330.793152 1925.949219 C 330.793152 1931.974609 325.920105 1936.847656 319.894714 1936.847656 Z M 314.12323 1925.949219 C 314.12323 1926.466797 314.494324 1926.828125 315.041199 1926.828125 L 318.986511 1926.828125 L 318.986511 1930.783203 C 318.986511 1931.320313 319.357605 1931.701172 319.875183 1931.701172 C 320.412292 1931.701172 320.783386 1931.330078 320.783386 1930.783203 L 320.783386 1926.828125 L 324.738464 1926.828125 C 325.275574 1926.828125 325.656433 1926.466797 325.656433 1925.949219 C 325.656433 1925.402344 325.285339 1925.03125 324.738464 1925.03125 L 320.783386 1925.03125 L 320.783386 1921.085938 C 320.783386 1920.539063 320.412292 1920.158203 319.875183 1920.158203 C 319.357605 1920.158203 318.986511 1920.539063 318.986511 1921.085938 L 318.986511 1925.03125 L 315.041199 1925.03125 C 314.494324 1925.03125 314.12323 1925.402344 314.12323 1925.949219 Z"/>
        </g>
        <text id="Design-Variations" xml:space="preserve" x="262" y="1955" font-family="Helvetica" font-size="13" font-weight="700" fill="#000000">Design Variations</text>
        <text id="Symbols-are-supported-in" xml:space="preserve" x="262" y="1973" font-family="Helvetica" font-size="13" fill="#000000">Symbols are supported in up to nine weights and three scales.</text>
        <text id="For-optimal-layout-with" xml:space="preserve" x="262" y="1991" font-family="Helvetica" font-size="13" fill="#000000">For optimal layout with text and other symbols, vertically align</text>
        <text id="symbols-with-the-adjacent" xml:space="preserve" x="262" y="2009" font-family="Helvetica" font-size="13" fill="#000000">symbols with the adjacent text.</text>
        <path id="path5" fill="none" stroke="#00aeef" stroke-width="0.5" d="M 776 1919 L 776 1933"/>
        <g id="g3">
            <path id="path6" fill="#000000" stroke="none" d="M 779.310547 1933.15625 C 779.828125 1933.15625 780.082031 1932.960938 780.267578 1932.414063 L 781.527344 1928.966797 L 787.289063 1928.966797 L 788.548828 1932.414063 C 788.734375 1932.960938 788.988281 1933.15625 789.496094 1933.15625 C 790.013672 1933.15625 790.345703 1932.84375 790.345703 1932.355469 C 790.345703 1932.189453 790.316406 1932.033203 790.238281 1931.828125 L 785.658203 1919.630859 C 785.433594 1919.035156 785.033203 1918.732422 784.408203 1918.732422 C 783.802734 1918.732422 783.392578 1919.025391 783.177734 1919.621094 L 778.597656 1931.837891 C 778.519531 1932.042969 778.490234 1932.199219 778.490234 1932.365234 C 778.490234 1932.853516 778.802734 1933.15625 779.310547 1933.15625 Z M 782.005859 1927.482422 L 784.378906 1920.910156 L 784.427734 1920.910156 L 786.800781 1927.482422 Z"/>
        </g>
        <path id="path7" fill="none" stroke="#00aeef" stroke-width="0.5" d="M 792.835999 1919 L 792.835999 1933"/>
        <text id="Margins" xml:space="preserve" x="775" y="1955" font-family="Helvetica" font-size="13" font-weight="700" fill="#000000">Margins</text>
        <text id="Leading-and-trailing-margins" xml:space="preserve" x="775" y="1973" font-family="Helvetica" font-size="13" fill="#000000">Leading and trailing margins on the left and right side of each symbol</text>
        <text id="can-be-adjusted-by" xml:space="preserve" x="775" y="1991" font-family="Helvetica" font-size="13" fill="#000000">can be adjusted by modifying the x-location of the margin guidelines.</text>
        <text id="Modifications-are-automatically-applied" xml:space="preserve" x="775" y="2009" font-family="Helvetica" font-size="13" fill="#000000">Modifications are automatically applied proportionally to all</text>
        <text id="scales-and-weights" xml:space="preserve" x="775" y="2027" font-family="Helvetica" font-size="13" fill="#000000">scales and weights.</text>
        <g id="g4">
            <path id="path8" fill="#000000" stroke="none" d="M 1291.841797 1934.865234 L 1293.541016 1936.574219 C 1294.400391 1937.443359 1295.386719 1937.384766 1296.314453 1936.359375 L 1307.007813 1924.572266 L 1306.041016 1923.595703 L 1295.425781 1935.275391 C 1295.074219 1935.675781 1294.742188 1935.773438 1294.273438 1935.304688 L 1293.101563 1934.142578 C 1292.632813 1933.683594 1292.740234 1933.341797 1293.140625 1932.980469 L 1304.615234 1922.179688 L 1303.638672 1921.212891 L 1292.046875 1932.101563 C 1291.060547 1933.019531 1290.982422 1933.996094 1291.841797 1934.865234 Z M 1298.257813 1916.671875 C 1297.837891 1917.082031 1297.808594 1917.658203 1298.042969 1918.048828 C 1298.277344 1918.410156 1298.736328 1918.644531 1299.380859 1918.478516 C 1300.845703 1918.136719 1302.369141 1918.078125 1303.794922 1919.015625 L 1303.208984 1920.470703 C 1302.867188 1921.300781 1303.042969 1921.886719 1303.580078 1922.433594 L 1305.875 1924.748047 C 1306.363281 1925.236328 1306.773438 1925.255859 1307.339844 1925.158203 L 1308.404297 1924.962891 L 1309.068359 1925.636719 L 1309.029297 1926.193359 C 1308.990234 1926.691406 1309.117188 1927.072266 1309.605469 1927.550781 L 1310.367188 1928.292969 C 1310.845703 1928.771484 1311.460938 1928.800781 1311.929688 1928.332031 L 1314.839844 1925.412109 C 1315.308594 1924.943359 1315.289063 1924.347656 1314.810547 1923.869141 L 1314.039063 1923.107422 C 1313.560547 1922.628906 1313.189453 1922.472656 1312.710938 1922.511719 L 1312.134766 1922.560547 L 1311.490234 1921.925781 L 1311.734375 1920.802734 C 1311.861328 1920.236328 1311.705078 1919.796875 1311.119141 1919.210938 L 1308.921875 1917.023438 C 1305.582031 1913.703125 1301.148438 1913.78125 1298.257813 1916.671875 Z M 1299.751953 1917.042969 C 1302.183594 1915.265625 1305.474609 1915.568359 1307.701172 1917.794922 L 1310.132813 1920.207031 C 1310.367188 1920.441406 1310.40625 1920.626953 1310.337891 1920.96875 L 1310.015625 1922.453125 L 1311.519531 1923.9375 L 1312.505859 1923.878906 C 1312.759766 1923.869141 1312.837891 1923.888672 1313.033203 1924.083984 L 1313.609375 1924.660156 L 1311.167969 1927.101563 L 1310.591797 1926.525391 C 1310.396484 1926.330078 1310.367188 1926.251953 1310.376953 1925.988281 L 1310.445313 1925.011719 L 1308.951172 1923.527344 L 1307.427734 1923.78125 C 1307.105469 1923.849609 1306.958984 1923.820313 1306.714844 1923.585938 L 1304.712891 1921.583984 C 1304.458984 1921.349609 1304.429688 1921.183594 1304.585938 1920.8125 L 1305.464844 1918.722656 C 1303.902344 1917.267578 1301.871094 1916.642578 1299.839844 1917.238281 C 1299.683594 1917.277344 1299.625 1917.150391 1299.751953 1917.042969 Z"/>
        </g>
        <text id="Exporting" xml:space="preserve" x="1288" y="1955" font-family="Helvetica" font-size="13" font-weight="700" fill="#000000">Exporting</text>
        <text id="Symbols-should-be-outlined" xml:space="preserve" x="1288" y="1973" font-family="Helvetica" font-size="13" fill="#000000">Symbols should be outlined when exporting to ensure the</text>
        <text id="design-is-preserved-when" xml:space="preserve" x="1288" y="1991" font-family="Helvetica" font-size="13" fill="#000000">design is preserved when submitting to Xcode.</text>
        <text id="template-version" xml:space="preserve" x="2949.414063" y="1935" font-family="Helvetica" font-size="13" fill="#000000">Template v.6.0</text>
        <text id="Requires-Xcode-16-or" xml:space="preserve" x="2862.45752" y="1953" font-family="Helvetica" font-size="13" fill="#000000">Requires Xcode 16 or greater</text>
        <text id="Generated-from-document" xml:space="preserve" x="2881.25293" y="1971" font-family="Helvetica" font-size="13" fill="#000000">Generated from document</text>
        <text id="Typeset-at-1000-points" xml:space="preserve" x="2898.569336" y="1989" font-family="Helvetica" font-size="13" fill="#000000">Typeset at 100.0 points</text>
        <text id="Small" xml:space="preserve" x="262" y="728" font-family="Helvetica" font-size="13" fill="#000000">Small</text>
        <text id="text1" xml:space="preserve" x="262" y="1158" font-family="Helvetica" font-size="13" fill="#000000">Medium</text>
        <text id="Large" xml:space="preserve" x="262" y="1588" font-family="Helvetica" font-size="13" fill="#000000">Large</text>
    </g>
    <g id="Guides">
        <g id="H-reference">
            <path id="path9" fill="#27aae1" stroke="none" d="M 339.993652 696 L 342.637756 696 L 368.328094 628.867676 L 369.030304 628.867676 L 369.030304 625.541016 L 367.122589 625.541016 Z M 350.688507 671.520142 L 385.981506 671.520142 L 385.231506 669.271484 L 351.438507 669.271484 Z M 394.119598 696 L 396.763702 696 L 369.638214 625.541016 L 368.432587 625.541016 L 368.432587 628.867676 Z"/>
        </g>
        <path id="Baseline-S" fill="none" stroke="#27aae1" stroke-width="0.5" d="M 263 696 L 3036 696"/>
        <path id="Capline-S" fill="none" stroke="#27aae1" stroke-width="0.5" d="M 263 625.541016 L 3036 625.541016"/>
        <g id="g5">
            <path id="path10" fill="#27aae1" stroke="none" d="M 339.993652 1126 L 342.637756 1126 L 368.328094 1058.867676 L 369.030304 1058.867676 L 369.030304 1055.541016 L 367.122589 1055.541016 Z M 350.688507 1101.520142 L 385.981506 1101.520142 L 385.231506 1099.271484 L 351.438507 1099.271484 Z M 394.119598 1126 L 396.763702 1126 L 369.638214 1055.541016 L 368.432587 1055.541016 L 368.432587 1058.867676 Z"/>
        </g>
        <path id="Baseline-M" fill="none" stroke="#27aae1" stroke-width="0.5" d="M 263 1126 L 3036 1126"/>
        <path id="Capline-M" fill="none" stroke="#27aae1" stroke-width="0.5" d="M 263 1055.540039 L 3036 1055.540039"/>
        <g id="g6">
            <path id="path11" fill="#27aae1" stroke="none" d="M 339.993652 1556 L 342.637756 1556 L 368.328094 1488.867676 L 369.030304 1488.867676 L 369.030304 1485.541016 L 367.122589 1485.541016 Z M 350.688507 1531.52002 L 385.981506 1531.52002 L 385.231506 1529.271484 L 351.438507 1529.271484 Z M 394.119598 1556 L 396.763702 1556 L 369.638214 1485.541016 L 368.432587 1485.541016 L 368.432587 1488.867676 Z"/>
        </g>
        <path id="Baseline-L" fill="none" stroke="#27aae1" stroke-width="0.5" d="M 263 1556 L 3036 1556"/>
        <path id="Capline-L" fill="none" stroke="#27aae1" stroke-width="0.5" d="M 263 1485.540039 L 3036 1485.540039"/>
        <path id="right-margin-Black-S" fill="none" stroke="#00aeef" stroke-width="0.5" d="M 2979.100098 600.784912 L 2979.100098 720.120972"/>
        <path id="left-margin-Black-S" fill="none" stroke="#00aeef" stroke-width="0.5" d="M 2887.699951 600.784912 L 2887.699951 720.120972"/>
        <path id="right-margin-Regular-S" fill="none" stroke="#00aeef" stroke-width="0.5" d="M 1492.130005 600.784912 L 1492.130005 720.120972"/>
        <path id="left-margin-Regular-S" fill="none" stroke="#00aeef" stroke-width="0.5" d="M 1407.560059 600.784912 L 1407.560059 720.120972"/>
        <path id="right-margin-Ultralight-S" fill="none" stroke="#00aeef" stroke-width="0.5" d="M 600.133972 600.784912 L 600.133972 720.120972"/>
        <path id="left-margin-Ultralight-S" fill="none" stroke="#00aeef" stroke-width="0.5" d="M 519.288025 600.784912 L 519.288025 720.120972"/>
    </g>
    <g id="Symbols">
        <g id="Black-S">
            <path id="path12" fill="none" stroke="#000000" stroke-width="0.5" d="M 2912.699951 704.154297 L 2954.106201 704.154297 C 2963.676514 704.154297 2969.340576 698.490234 2969.340576 688.919922 L 2969.340576 654.251953 C 2969.340576 647.074219 2968.071045 643.167969 2963.432373 638.529297 L 2948.246826 623.34375 C 2943.608154 618.705078 2939.701904 617.435547 2932.52417 617.435547 L 2912.699951 617.435547 C 2903.129639 617.435547 2897.465576 623.099609 2897.465576 632.669922 L 2897.465576 688.919922 C 2897.465576 698.490234 2903.129639 704.154297 2912.699951 704.154297 Z M 2914.946045 689.994141 C 2912.504639 689.994141 2911.625732 688.919922 2911.625732 686.673828 L 2911.625732 634.916016 C 2911.625732 632.669922 2912.504639 631.595703 2914.946045 631.595703 L 2927.690186 631.595703 L 2927.690186 646.292969 C 2927.690186 655.082031 2931.694092 659.085938 2940.483154 659.085938 L 2955.18042 659.085938 L 2955.18042 686.673828 C 2955.18042 688.919922 2954.301514 689.994141 2951.860107 689.994141 Z M 2941.264404 648.34375 C 2939.408936 648.34375 2938.432373 647.367188 2938.432373 645.511719 L 2938.432373 631.888672 L 2954.887451 648.34375 Z"/>
            <path id="DXF" fill="#000000" fill-rule="evenodd" stroke="none" d="M 2944.390137 688 L 2944.390137 675.317383 L 2953.302246 675.317383 L 2953.302246 678.270508 L 2948.116699 678.270508 L 2948.116699 680.713867 L 2952.810059 680.713867 L 2952.810059 683.508789 L 2948.116699 683.508789 L 2948.116699 688 Z M 2927.786377 688 L 2932.365479 680.212891 L 2931.521729 683.306641 L 2931.521729 681.575195 L 2927.777588 675.317383 L 2932.119385 675.317383 L 2934.114502 679.360352 L 2935.845947 679.360352 L 2933.446533 680.845703 L 2936.188721 675.317383 L 2940.31958 675.317383 L 2936.390869 681.592773 L 2936.390869 683.324219 L 2935.520752 680.248047 L 2940.302002 688 L 2936.153564 688 L 2933.965088 684.176758 L 2932.233643 684.176758 L 2934.712158 682.735352 L 2931.723877 688 Z M 2913.412842 688 L 2913.412842 675.317383 L 2919.028564 675.317383 C 2920.295166 675.317383 2921.368408 675.55603 2922.249023 676.033447 C 2923.129395 676.510864 2923.800049 677.209717 2924.260986 678.129883 C 2924.721924 679.050049 2924.952393 680.170166 2924.952393 681.48999 L 2924.952393 681.507568 C 2924.952393 682.905884 2924.724854 684.088257 2924.269287 685.05481 C 2923.813965 686.021362 2923.145996 686.753906 2922.265625 687.252319 C 2921.385254 687.750732 2920.306396 688 2919.028564 688 Z M 2917.139404 685.046509 L 2918.30835 685.046509 C 2918.929443 685.046509 2919.450928 684.919067 2919.872803 684.664185 C 2920.294678 684.409302 2920.614014 684.024048 2920.830566 683.508545 C 2921.047363 682.993042 2921.155518 682.348511 2921.155518 681.574829 L 2921.155518 681.557251 C 2921.155518 680.848267 2921.042725 680.249146 2920.817139 679.76001 C 2920.591553 679.270874 2920.266357 678.900513 2919.841553 678.648682 C 2919.416748 678.396851 2918.905762 678.270874 2918.30835 678.270874 L 2917.139404 678.270874 Z"/>
        </g>
        <g id="Regular-S">
            <path id="path13" fill="none" stroke="#000000" stroke-width="0.5" d="M 1429.581543 701.908203 L 1470.060059 701.908203 C 1478.263062 701.908203 1482.364746 697.757813 1482.364746 689.457031 L 1482.364746 655.423828 C 1482.364746 650.052734 1481.778809 647.708984 1478.409546 644.242188 L 1458.145874 623.539063 C 1454.972046 620.267578 1452.335449 619.583984 1447.647949 619.583984 L 1429.581543 619.583984 C 1421.378418 619.583984 1417.325562 623.734375 1417.325562 632.035156 L 1417.325562 689.457031 C 1417.325562 697.806641 1421.378418 701.908203 1429.581543 701.908203 Z M 1429.92334 694.876953 C 1426.26123 694.876953 1424.356934 692.875 1424.356934 689.359375 L 1424.356934 632.132813 C 1424.356934 628.617188 1426.26123 626.615234 1429.972046 626.615234 L 1446.427246 626.615234 L 1446.427246 648.34375 C 1446.427246 653.421875 1449.015137 656.009766 1454.09314 656.009766 L 1475.284546 656.009766 L 1475.284546 689.359375 C 1475.284546 692.875 1473.380249 694.876953 1469.71814 694.876953 Z M 1454.92334 649.417969 C 1453.556152 649.417969 1452.970215 648.832031 1452.970215 647.464844 L 1452.970215 627.933594 L 1473.966187 649.417969 Z"/>
            <path id="path14" fill="#000000" fill-rule="evenodd" stroke="none" d="M 1459.799805 691 L 1459.799805 678.317383 L 1467.499023 678.317383 L 1467.499023 679.741211 L 1461.381836 679.741211 L 1461.381836 684.100586 L 1466.998047 684.100586 L 1466.998047 685.506836 L 1461.381836 685.506836 L 1461.381836 691 Z M 1444.883545 691 L 1449.585693 684.074219 L 1449.207764 685.295898 L 1449.207764 684.592773 L 1444.936279 678.317383 L 1446.843506 678.317383 L 1450.236084 683.423828 L 1450.956787 683.423828 L 1449.910889 683.986328 L 1453.716553 678.317383 L 1455.518311 678.317383 L 1451.132568 684.671875 L 1451.132568 685.375 L 1450.754639 684.15332 L 1455.421631 691 L 1453.523193 691 L 1450.148193 685.9375 L 1449.42749 685.9375 L 1450.473389 685.383789 L 1446.676514 691 Z M 1431.234375 691 L 1431.234375 678.317383 L 1435.581055 678.317383 C 1436.834961 678.317383 1437.908569 678.567871 1438.802002 679.068848 C 1439.695435 679.569824 1440.379517 680.29187 1440.854248 681.235107 C 1441.328979 682.178345 1441.566406 683.315063 1441.566406 684.645142 L 1441.566406 684.66272 C 1441.566406 685.992798 1441.329102 687.130981 1440.854492 688.077393 C 1440.379883 689.023804 1439.697266 689.747559 1438.806641 690.248535 C 1437.916016 690.749512 1436.84082 691 1435.581055 691 Z M 1432.816406 689.576172 L 1435.475586 689.576172 C 1436.419678 689.576172 1437.225708 689.382935 1437.893555 688.99646 C 1438.561401 688.610107 1439.070923 688.050659 1439.422241 687.318359 C 1439.77356 686.586182 1439.949219 685.706787 1439.949219 684.680298 L 1439.949219 684.66272 C 1439.949219 683.630371 1439.772095 682.746582 1439.418091 682.011353 C 1439.063965 681.276123 1438.552979 680.713989 1437.885132 680.324829 C 1437.217285 679.935791 1436.414063 679.741211 1435.475586 679.741211 L 1432.816406 679.741211 Z"/>
        </g>
        <g id="Ultralight-S">
            <path id="path15" fill="none" stroke="#000000" stroke-width="0.5" d="M 539.039001 701.181641 L 580.38031 701.181641 C 586.948669 701.181641 590.36908 697.712402 590.36908 691.182617 L 590.36908 653.244141 C 590.36908 650.506836 589.874023 649.25293 588.230408 647.602539 L 563.3349 622.67627 C 561.705017 620.994141 560.385193 620.492188 557.695679 620.492188 L 539.039001 620.492188 C 532.606873 620.492188 529.05365 623.961426 529.05365 630.491211 L 529.05365 691.182617 C 529.05365 697.71582 532.515991 701.181641 539.039001 701.181641 Z M 539.153687 698.963867 C 533.947693 698.963867 531.271423 696.280762 531.271423 691.084961 L 531.271423 630.588867 C 531.271423 625.620117 533.947693 622.709961 539.157227 622.709961 L 558.609314 622.709961 L 558.609314 647.163086 C 558.609314 650.788086 560.425171 652.286255 563.732422 652.286255 L 588.193298 652.286255 L 588.193298 691.084961 C 588.193298 696.280762 585.471619 698.963867 580.265503 698.963867 Z M 563.881287 650.099121 C 561.651306 650.099121 560.792908 649.240723 560.792908 647.056152 L 560.792908 623.301758 L 587.601501 650.099121 Z"/>
            <path id="path16" fill="#000000" fill-rule="evenodd" stroke="none" d="M 569.595093 694 L 569.595093 681.317383 L 576.777405 681.317383 L 576.777405 681.733032 L 570.03894 681.733032 L 570.03894 687.303833 L 576.243896 687.303833 L 576.243896 687.718262 L 570.03894 687.718262 L 570.03894 694 Z M 555.433716 694 L 560.160339 687.480713 L 560.018066 687.921997 L 560.018066 687.641479 L 555.437683 681.317383 L 555.970947 681.317383 L 560.290344 687.277466 L 560.572021 687.277466 L 560.184631 687.474121 L 564.648804 681.317383 L 565.174194 681.317383 L 560.593323 687.639282 L 560.593323 687.9198 L 560.451172 687.478516 L 565.166931 694 L 564.634338 694 L 560.324402 688.043213 L 560.042786 688.043213 L 560.430176 687.84729 L 555.958435 694 Z M 541.947571 694 L 541.947571 681.317383 L 545.777527 681.317383 C 547.131531 681.317383 548.256775 681.578125 549.153259 682.099487 C 550.049744 682.620972 550.722351 683.355957 551.171082 684.304443 C 551.619812 685.25293 551.844177 686.366699 551.844177 687.645752 L 551.844177 687.66333 C 551.844177 688.942505 551.619812 690.057617 551.171082 691.009033 C 550.722351 691.960449 550.049744 692.696777 549.153381 693.218018 C 548.256958 693.73938 547.131714 694 545.777527 694 Z M 542.391418 693.584351 L 545.769714 693.584351 C 546.983643 693.584351 548.008545 693.342773 548.844543 692.859497 C 549.680481 692.376343 550.315002 691.691528 550.748108 690.80481 C 551.181213 689.918213 551.397766 688.87146 551.397766 687.664795 L 551.397766 687.647217 C 551.397766 686.43457 551.181091 685.386108 550.747742 684.501831 C 550.314453 683.617554 549.67981 682.935059 548.843811 682.454224 C 548.007874 681.973511 546.983154 681.733032 545.769714 681.733032 L 542.391418 681.733032 Z"/>
        </g>
    </g>
</svg>
