<?xml version="1.0" encoding="UTF-8"?>
<!-- Generated by Pixelmator Pro 3.7 -->
<svg width="3300" height="2200" viewBox="0 0 3300 2200" xmlns="http://www.w3.org/2000/svg">
    <g id="Notes">
        <path id="artboard" fill="#ffffff" stroke="none" d="M 0 0 L 3300 0 L 3300 2200 L 0 2200 Z"/>
        <path id="Path" fill="none" stroke="#000000" stroke-width="0.5" d="M 263 292 L 3036 292"/>
        <text id="WeightScale-Variations" xml:space="preserve" x="261" y="326" font-family="Helvetica" font-size="13" font-weight="700" fill="#000000">Weight/Scale Variations</text>
        <text id="Ultralight" xml:space="preserve" x="531" y="326" font-family="Helvetica" font-size="13" fill="#000000">Ultralight</text>
        <text id="Thin" xml:space="preserve" x="840" y="326" font-family="Helvetica" font-size="13" fill="#000000">Thin</text>
        <text id="Light" xml:space="preserve" x="1136" y="326" font-family="Helvetica" font-size="13" fill="#000000">Light</text>
        <text id="Regular" xml:space="preserve" x="1424" y="326" font-family="Helvetica" font-size="13" fill="#000000">Regular</text>
        <text id="Medium" xml:space="preserve" x="1720" y="326" font-family="Helvetica" font-size="13" fill="#000000">Medium</text>
        <text id="Semibold" xml:space="preserve" x="2013" y="326" font-family="Helvetica" font-size="13" fill="#000000">Semibold</text>
        <text id="Bold" xml:space="preserve" x="2323" y="326" font-family="Helvetica" font-size="13" fill="#000000">Bold</text>
        <text id="Heavy" xml:space="preserve" x="2615" y="326" font-family="Helvetica" font-size="13" fill="#000000">Heavy</text>
        <text id="Black" xml:space="preserve" x="2914" y="326" font-family="Helvetica" font-size="13" fill="#000000">Black</text>
        <path id="path3" fill="none" stroke="#000000" stroke-width="0.5" d="M 263 1903 L 3036 1903"/>
        <g id="Group">
            <path id="path4" fill="#000000" stroke="none" d="M 272.248047 1933.830078 C 276.603516 1933.830078 280.138672 1930.304688 280.138672 1925.949219 C 280.138672 1921.59375 276.603516 1918.068359 272.248047 1918.068359 C 267.902344 1918.068359 264.367188 1921.59375 264.367188 1925.949219 C 264.367188 1930.304688 267.902344 1933.830078 272.248047 1933.830078 Z M 272.248047 1932.345703 C 268.712891 1932.345703 265.861328 1929.484375 265.861328 1925.949219 C 265.861328 1922.414063 268.712891 1919.552734 272.248047 1919.552734 C 275.783203 1919.552734 278.644531 1922.414063 278.644531 1925.949219 C 278.644531 1929.484375 275.783203 1932.345703 272.248047 1932.345703 Z M 268.654266 1925.949219 C 268.654266 1926.378906 268.957001 1926.671875 269.406219 1926.671875 L 271.505829 1926.671875 L 271.505829 1928.791016 C 271.505829 1929.230469 271.798798 1929.533203 272.228485 1929.533203 C 272.677704 1929.533203 272.970673 1929.230469 272.970673 1928.791016 L 272.970673 1926.671875 L 275.089813 1926.671875 C 275.529266 1926.671875 275.832001 1926.378906 275.832001 1925.949219 C 275.832001 1925.509766 275.529266 1925.207031 275.089813 1925.207031 L 272.970673 1925.207031 L 272.970673 1923.097656 C 272.970673 1922.648438 272.677704 1922.345703 272.228485 1922.345703 C 271.798798 1922.345703 271.505829 1922.648438 271.505829 1923.097656 L 271.505829 1925.207031 L 269.406219 1925.207031 C 268.957031 1925.207031 268.654266 1925.509766 268.654266 1925.949219 Z"/>
        </g>
        <g id="g1">
            <path id="path5" fill="#000000" stroke="none" d="M 293.214966 1935.910156 C 298.713013 1935.910156 303.175934 1931.447266 303.175934 1925.949219 C 303.175934 1920.451172 298.713013 1915.988281 293.214966 1915.988281 C 287.716949 1915.988281 283.254028 1920.451172 283.254028 1925.949219 C 283.254028 1931.447266 287.716949 1935.910156 293.214966 1935.910156 Z M 293.214966 1934.25 C 288.625153 1934.25 284.914215 1930.539063 284.914215 1925.949219 C 284.914215 1921.359375 288.625153 1917.648438 293.214966 1917.648438 C 297.80481 1917.648438 301.515747 1921.359375 301.515747 1925.949219 C 301.515747 1930.539063 297.80481 1934.25 293.214966 1934.25 Z M 288.683746 1925.949219 C 288.683746 1926.427734 289.015778 1926.75 289.513824 1926.75 L 292.384918 1926.75 L 292.384918 1929.630859 C 292.384918 1930.119141 292.716949 1930.460938 293.195465 1930.460938 C 293.683746 1930.460938 294.025543 1930.128906 294.025543 1929.630859 L 294.025543 1926.75 L 296.906403 1926.75 C 297.394684 1926.75 297.736481 1926.427734 297.736481 1925.949219 C 297.736481 1925.460938 297.394684 1925.119141 296.906403 1925.119141 L 294.025543 1925.119141 L 294.025543 1922.248047 C 294.025543 1921.75 293.683746 1921.408203 293.195465 1921.408203 C 292.716949 1921.408203 292.384918 1921.75 292.384918 1922.248047 L 292.384918 1925.119141 L 289.513824 1925.119141 C 289.015778 1925.119141 288.683746 1925.460938 288.683746 1925.949219 Z"/>
        </g>
        <g id="g2">
            <path id="path6" fill="#000000" stroke="none" d="M 319.894714 1938.664063 C 326.916168 1938.664063 332.619293 1932.970703 332.619293 1925.949219 C 332.619293 1918.927734 326.916168 1913.224609 319.894714 1913.224609 C 312.87323 1913.224609 307.179871 1918.927734 307.179871 1925.949219 C 307.179871 1932.970703 312.87323 1938.664063 319.894714 1938.664063 Z M 319.894714 1936.847656 C 313.869293 1936.847656 308.996246 1931.974609 308.996246 1925.949219 C 308.996246 1919.923828 313.869293 1915.050781 319.894714 1915.050781 C 325.920105 1915.050781 330.793152 1919.923828 330.793152 1925.949219 C 330.793152 1931.974609 325.920105 1936.847656 319.894714 1936.847656 Z M 314.12323 1925.949219 C 314.12323 1926.466797 314.494324 1926.828125 315.041199 1926.828125 L 318.986511 1926.828125 L 318.986511 1930.783203 C 318.986511 1931.320313 319.357605 1931.701172 319.875183 1931.701172 C 320.412292 1931.701172 320.783386 1931.330078 320.783386 1930.783203 L 320.783386 1926.828125 L 324.738464 1926.828125 C 325.275574 1926.828125 325.656433 1926.466797 325.656433 1925.949219 C 325.656433 1925.402344 325.285339 1925.03125 324.738464 1925.03125 L 320.783386 1925.03125 L 320.783386 1921.085938 C 320.783386 1920.539063 320.412292 1920.158203 319.875183 1920.158203 C 319.357605 1920.158203 318.986511 1920.539063 318.986511 1921.085938 L 318.986511 1925.03125 L 315.041199 1925.03125 C 314.494324 1925.03125 314.12323 1925.402344 314.12323 1925.949219 Z"/>
        </g>
        <text id="Design-Variations" xml:space="preserve" x="261" y="1957" font-family="Helvetica" font-size="13" font-weight="700" fill="#000000">Design Variations</text>
        <text id="Symbols-are-supported-in" xml:space="preserve" x="261" y="1975" font-family="Helvetica" font-size="13" fill="#000000">Symbols are supported in up to nine weights and three scales.</text>
        <text id="For-optimal-layout-with" xml:space="preserve" x="261" y="1993" font-family="Helvetica" font-size="13" fill="#000000">For optimal layout with text and other symbols, vertically align</text>
        <text id="symbols-with-the-adjacent" xml:space="preserve" x="261" y="2011" font-family="Helvetica" font-size="13" fill="#000000">symbols with the adjacent text.</text>
        <path id="path7" fill="none" stroke="#00aeef" stroke-width="0.5" d="M 776 1919 L 776 1933"/>
        <g id="g3">
            <path id="path8" fill="#000000" stroke="none" d="M 779.310547 1933.15625 C 779.828125 1933.15625 780.082031 1932.960938 780.267578 1932.414063 L 781.527344 1928.966797 L 787.289063 1928.966797 L 788.548828 1932.414063 C 788.734375 1932.960938 788.988281 1933.15625 789.496094 1933.15625 C 790.013672 1933.15625 790.345703 1932.84375 790.345703 1932.355469 C 790.345703 1932.189453 790.316406 1932.033203 790.238281 1931.828125 L 785.658203 1919.630859 C 785.433594 1919.035156 785.033203 1918.732422 784.408203 1918.732422 C 783.802734 1918.732422 783.392578 1919.025391 783.177734 1919.621094 L 778.597656 1931.837891 C 778.519531 1932.042969 778.490234 1932.199219 778.490234 1932.365234 C 778.490234 1932.853516 778.802734 1933.15625 779.310547 1933.15625 Z M 782.005859 1927.482422 L 784.378906 1920.910156 L 784.427734 1920.910156 L 786.800781 1927.482422 Z"/>
        </g>
        <path id="path9" fill="none" stroke="#00aeef" stroke-width="0.5" d="M 792.835999 1919 L 792.835999 1933"/>
        <text id="Margins" xml:space="preserve" x="774" y="1957" font-family="Helvetica" font-size="13" font-weight="700" fill="#000000">Margins</text>
        <text id="Leading-and-trailing-margins" xml:space="preserve" x="774" y="1975" font-family="Helvetica" font-size="13" fill="#000000">Leading and trailing margins on the left and right side of each symbol</text>
        <text id="can-be-adjusted-by" xml:space="preserve" x="774" y="1993" font-family="Helvetica" font-size="13" fill="#000000">can be adjusted by modifying the x-location of the margin guidelines.</text>
        <text id="Modifications-are-automatically-applied" xml:space="preserve" x="774" y="2011" font-family="Helvetica" font-size="13" fill="#000000">Modifications are automatically applied proportionally to all</text>
        <text id="scales-and-weights" xml:space="preserve" x="774" y="2029" font-family="Helvetica" font-size="13" fill="#000000">scales and weights.</text>
        <g id="g4">
            <path id="path10" fill="#000000" stroke="none" d="M 1291.841797 1934.865234 L 1293.541016 1936.574219 C 1294.400391 1937.443359 1295.386719 1937.384766 1296.314453 1936.359375 L 1307.007813 1924.572266 L 1306.041016 1923.595703 L 1295.425781 1935.275391 C 1295.074219 1935.675781 1294.742188 1935.773438 1294.273438 1935.304688 L 1293.101563 1934.142578 C 1292.632813 1933.683594 1292.740234 1933.341797 1293.140625 1932.980469 L 1304.615234 1922.179688 L 1303.638672 1921.212891 L 1292.046875 1932.101563 C 1291.060547 1933.019531 1290.982422 1933.996094 1291.841797 1934.865234 Z M 1298.257813 1916.671875 C 1297.837891 1917.082031 1297.808594 1917.658203 1298.042969 1918.048828 C 1298.277344 1918.410156 1298.736328 1918.644531 1299.380859 1918.478516 C 1300.845703 1918.136719 1302.369141 1918.078125 1303.794922 1919.015625 L 1303.208984 1920.470703 C 1302.867188 1921.300781 1303.042969 1921.886719 1303.580078 1922.433594 L 1305.875 1924.748047 C 1306.363281 1925.236328 1306.773438 1925.255859 1307.339844 1925.158203 L 1308.404297 1924.962891 L 1309.068359 1925.636719 L 1309.029297 1926.193359 C 1308.990234 1926.691406 1309.117188 1927.072266 1309.605469 1927.550781 L 1310.367188 1928.292969 C 1310.845703 1928.771484 1311.460938 1928.800781 1311.929688 1928.332031 L 1314.839844 1925.412109 C 1315.308594 1924.943359 1315.289063 1924.347656 1314.810547 1923.869141 L 1314.039063 1923.107422 C 1313.560547 1922.628906 1313.189453 1922.472656 1312.710938 1922.511719 L 1312.134766 1922.560547 L 1311.490234 1921.925781 L 1311.734375 1920.802734 C 1311.861328 1920.236328 1311.705078 1919.796875 1311.119141 1919.210938 L 1308.921875 1917.023438 C 1305.582031 1913.703125 1301.148438 1913.78125 1298.257813 1916.671875 Z M 1299.751953 1917.042969 C 1302.183594 1915.265625 1305.474609 1915.568359 1307.701172 1917.794922 L 1310.132813 1920.207031 C 1310.367188 1920.441406 1310.40625 1920.626953 1310.337891 1920.96875 L 1310.015625 1922.453125 L 1311.519531 1923.9375 L 1312.505859 1923.878906 C 1312.759766 1923.869141 1312.837891 1923.888672 1313.033203 1924.083984 L 1313.609375 1924.660156 L 1311.167969 1927.101563 L 1310.591797 1926.525391 C 1310.396484 1926.330078 1310.367188 1926.251953 1310.376953 1925.988281 L 1310.445313 1925.011719 L 1308.951172 1923.527344 L 1307.427734 1923.78125 C 1307.105469 1923.849609 1306.958984 1923.820313 1306.714844 1923.585938 L 1304.712891 1921.583984 C 1304.458984 1921.349609 1304.429688 1921.183594 1304.585938 1920.8125 L 1305.464844 1918.722656 C 1303.902344 1917.267578 1301.871094 1916.642578 1299.839844 1917.238281 C 1299.683594 1917.277344 1299.625 1917.150391 1299.751953 1917.042969 Z"/>
        </g>
        <text id="Exporting" xml:space="preserve" x="1287" y="1957" font-family="Helvetica" font-size="13" font-weight="700" fill="#000000">Exporting</text>
        <text id="Symbols-should-be-outlined" xml:space="preserve" x="1287" y="1975" font-family="Helvetica" font-size="13" fill="#000000">Symbols should be outlined when exporting to ensure the</text>
        <text id="design-is-preserved-when" xml:space="preserve" x="1287" y="1993" font-family="Helvetica" font-size="13" fill="#000000">design is preserved when submitting to Xcode.</text>
        <text id="template-version" xml:space="preserve" x="2948" y="1937" font-family="Helvetica" font-size="13" fill="#000000">Template v.6.0</text>
        <text id="Requires-Xcode-16-or" xml:space="preserve" x="2861" y="1955" font-family="Helvetica" font-size="13" fill="#000000">Requires Xcode 16 or greater</text>
        <text id="Generated-from-document" xml:space="preserve" x="2880" y="1973" font-family="Helvetica" font-size="13" fill="#000000">Generated from document</text>
        <text id="Typeset-at-1000-points" xml:space="preserve" x="2898" y="1991" font-family="Helvetica" font-size="13" fill="#000000">Typeset at 100.0 points</text>
        <text id="Small" xml:space="preserve" x="261" y="730" font-family="Helvetica" font-size="13" fill="#000000">Small</text>
        <text id="text1" xml:space="preserve" x="261" y="1160" font-family="Helvetica" font-size="13" fill="#000000">Medium</text>
        <text id="Large" xml:space="preserve" x="261" y="1590" font-family="Helvetica" font-size="13" fill="#000000">Large</text>
    </g>
    <g id="Guides">
        <g id="H-reference">
            <path id="path11" fill="#27aae1" stroke="none" d="M 339.993652 696 L 342.637756 696 L 368.328094 628.867676 L 369.030304 628.867676 L 369.030304 625.541016 L 367.122589 625.541016 Z M 350.688507 671.520142 L 385.981506 671.520142 L 385.231506 669.271484 L 351.438507 669.271484 Z M 394.119598 696 L 396.763702 696 L 369.638214 625.541016 L 368.432587 625.541016 L 368.432587 628.867676 Z"/>
        </g>
        <path id="Baseline-S" fill="none" stroke="#27aae1" stroke-width="0.5" d="M 263 696 L 3036 696"/>
        <path id="Capline-S" fill="none" stroke="#27aae1" stroke-width="0.5" d="M 263 625.541016 L 3036 625.541016"/>
        <g id="g5">
            <path id="path12" fill="#27aae1" stroke="none" d="M 339.993652 1126 L 342.637756 1126 L 368.328094 1058.867676 L 369.030304 1058.867676 L 369.030304 1055.541016 L 367.122589 1055.541016 Z M 350.688507 1101.520142 L 385.981506 1101.520142 L 385.231506 1099.271484 L 351.438507 1099.271484 Z M 394.119598 1126 L 396.763702 1126 L 369.638214 1055.541016 L 368.432587 1055.541016 L 368.432587 1058.867676 Z"/>
        </g>
        <path id="Baseline-M" fill="none" stroke="#27aae1" stroke-width="0.5" d="M 263 1126 L 3036 1126"/>
        <path id="Capline-M" fill="none" stroke="#27aae1" stroke-width="0.5" d="M 263 1055.540039 L 3036 1055.540039"/>
        <g id="g6">
            <path id="path13" fill="#27aae1" stroke="none" d="M 339.993652 1556 L 342.637756 1556 L 368.328094 1488.867676 L 369.030304 1488.867676 L 369.030304 1485.541016 L 367.122589 1485.541016 Z M 350.688507 1531.52002 L 385.981506 1531.52002 L 385.231506 1529.271484 L 351.438507 1529.271484 Z M 394.119598 1556 L 396.763702 1556 L 369.638214 1485.541016 L 368.432587 1485.541016 L 368.432587 1488.867676 Z"/>
        </g>
        <path id="Baseline-L" fill="none" stroke="#27aae1" stroke-width="0.5" d="M 263 1556 L 3036 1556"/>
        <path id="Capline-L" fill="none" stroke="#27aae1" stroke-width="0.5" d="M 263 1485.540039 L 3036 1485.540039"/>
        <path id="right-margin-Black-S" fill="none" stroke="#00aeef" stroke-width="0.5" d="M 2979.100098 600.784912 L 2979.100098 720.120972"/>
        <path id="left-margin-Black-S" fill="none" stroke="#00aeef" stroke-width="0.5" d="M 2887.699951 600.784912 L 2887.699951 720.120972"/>
        <path id="right-margin-Regular-S" fill="none" stroke="#00aeef" stroke-width="0.5" d="M 1492.130005 600.784912 L 1492.130005 720.120972"/>
        <path id="left-margin-Regular-S" fill="none" stroke="#00aeef" stroke-width="0.5" d="M 1407.560059 600.784912 L 1407.560059 720.120972"/>
        <path id="right-margin-Ultralight-S" fill="none" stroke="#00aeef" stroke-width="0.5" d="M 600.133972 600.784912 L 600.133972 720.120972"/>
        <path id="left-margin-Ultralight-S" fill="none" stroke="#00aeef" stroke-width="0.5" d="M 519.288025 600.784912 L 519.288025 720.120972"/>
    </g>
    <g id="Symbols">
        <g id="Black-S">
            <path id="path14" fill="none" stroke="#000000" stroke-width="0.5" d="M 2912.699951 704.154297 L 2954.106201 704.154297 C 2963.676514 704.154297 2969.340576 698.490234 2969.340576 688.919922 L 2969.340576 654.251953 C 2969.340576 647.074219 2968.071045 643.167969 2963.432373 638.529297 L 2948.246826 623.34375 C 2943.608154 618.705078 2939.701904 617.435547 2932.52417 617.435547 L 2912.699951 617.435547 C 2903.129639 617.435547 2897.465576 623.099609 2897.465576 632.669922 L 2897.465576 688.919922 C 2897.465576 698.490234 2903.129639 704.154297 2912.699951 704.154297 Z M 2914.946045 689.994141 C 2912.504639 689.994141 2911.625732 688.919922 2911.625732 686.673828 L 2911.625732 634.916016 C 2911.625732 632.669922 2912.504639 631.595703 2914.946045 631.595703 L 2927.690186 631.595703 L 2927.690186 646.292969 C 2927.690186 655.082031 2931.694092 659.085938 2940.483154 659.085938 L 2955.18042 659.085938 L 2955.18042 686.673828 C 2955.18042 688.919922 2954.301514 689.994141 2951.860107 689.994141 Z M 2941.264404 648.34375 C 2939.408936 648.34375 2938.432373 647.367188 2938.432373 645.511719 L 2938.432373 631.888672 L 2954.887451 648.34375 Z"/>
            <path id="JSON" fill="#000000" fill-rule="evenodd" stroke="none" d="M 2949.770996 687 L 2949.770996 674.317383 L 2952.672119 674.317383 L 2958.449219 681.942261 L 2955.796143 680.619141 L 2957.618652 680.619141 L 2957.618652 674.317383 L 2961.144043 674.317383 L 2961.144043 687 L 2958.269531 687 L 2952.466064 679.269653 L 2955.118652 680.601196 L 2953.296143 680.601196 L 2953.296143 687 Z M 2939.241455 687.345947 C 2937.946045 687.345947 2936.819336 687.07666 2935.861572 686.537964 C 2934.903564 685.999268 2934.162598 685.230835 2933.638428 684.232422 C 2933.114258 683.234131 2932.852295 682.044312 2932.852295 680.663086 L 2932.852295 680.645508 C 2932.852295 679.269897 2933.115723 678.083008 2933.642822 677.084717 C 2934.169922 676.086548 2934.912354 675.318115 2935.870361 674.779419 C 2936.828125 674.240723 2937.951904 673.971436 2939.241455 673.971436 C 2940.537109 673.971436 2941.662598 674.240845 2942.61792 674.779663 C 2943.572998 675.318481 2944.312744 676.086914 2944.836914 677.084961 C 2945.361084 678.08313 2945.623291 679.269897 2945.623291 680.645508 L 2945.623291 680.663086 C 2945.623291 682.044312 2945.361084 683.234009 2944.836914 684.2323 C 2944.312744 685.230469 2943.572998 685.998901 2942.61792 686.53772 C 2941.662842 687.076538 2940.537354 687.345947 2939.241455 687.345947 Z M 2939.241455 684.304932 C 2939.752441 684.304932 2940.202881 684.155762 2940.592285 683.857544 C 2940.981934 683.559204 2941.284912 683.136597 2941.501465 682.589722 C 2941.718018 682.042725 2941.826416 681.400513 2941.826416 680.663086 L 2941.826416 680.645508 C 2941.826416 679.907715 2941.718018 679.266968 2941.501221 678.7229 C 2941.284668 678.178833 2940.981445 677.757813 2940.591797 677.459717 C 2940.202148 677.161499 2939.751953 677.012451 2939.241455 677.012451 C 2938.731445 677.012451 2938.281738 677.161499 2937.89209 677.459473 C 2937.502441 677.757446 2937.197754 678.178467 2936.978271 678.722534 C 2936.758789 679.266479 2936.64917 679.907471 2936.64917 680.645508 L 2936.64917 680.663086 C 2936.64917 681.400879 2936.758789 682.043091 2936.978271 682.590088 C 2937.197754 683.137085 2937.502197 683.55957 2937.891846 683.857666 C 2938.28125 684.155884 2938.731201 684.304932 2939.241455 684.304932 Z M 2923.696045 687.345947 C 2922.600342 687.345947 2921.652588 687.192139 2920.852783 686.884766 C 2920.052979 686.577271 2919.428955 686.134766 2918.980713 685.557373 C 2918.532471 684.97998 2918.287598 684.283691 2918.246338 683.468506 L 2918.237549 683.293091 L 2921.774414 683.293091 L 2921.783447 683.363647 C 2921.813965 683.575439 2921.911865 683.766235 2922.077148 683.936157 C 2922.242676 684.106079 2922.467529 684.240845 2922.752197 684.340332 C 2923.036621 684.439697 2923.365967 684.489502 2923.73999 684.489502 C 2924.11499 684.489502 2924.435791 684.441162 2924.702393 684.344727 C 2924.968994 684.248169 2925.175537 684.113647 2925.322021 683.941162 C 2925.468506 683.768799 2925.541748 683.574341 2925.541748 683.357788 L 2925.541748 683.348999 C 2925.541748 683.044556 2925.398193 682.820313 2925.111084 682.676392 C 2924.823975 682.532471 2924.328857 682.395996 2923.625732 682.26709 L 2922.351318 682.030151 C 2920.996338 681.773926 2920.007324 681.325317 2919.383789 680.684448 C 2918.760498 680.043579 2918.448975 679.219727 2918.448975 678.213013 L 2918.448975 678.204224 C 2918.448975 677.337769 2918.674316 676.588379 2919.125488 675.956177 C 2919.576416 675.323853 2920.193115 674.835083 2920.975586 674.489624 C 2921.757813 674.144165 2922.650146 673.971436 2923.6521 673.971436 C 2924.782959 673.971436 2925.729492 674.139404 2926.491699 674.475342 C 2927.253906 674.811279 2927.840088 675.279175 2928.250244 675.879028 C 2928.6604 676.478882 2928.899902 677.171387 2928.968506 677.956909 L 2928.977295 678.057983 L 2925.558105 678.057983 L 2925.540771 677.96167 C 2925.500732 677.727295 2925.399902 677.526611 2925.23877 677.359619 C 2925.077637 677.192627 2924.865234 677.062256 2924.601318 676.968506 C 2924.337646 676.874756 2924.035889 676.827881 2923.696045 676.827881 C 2923.356201 676.827881 2923.070557 676.873291 2922.839111 676.964111 C 2922.607666 677.054932 2922.43335 677.177979 2922.316162 677.333252 C 2922.198975 677.488525 2922.140381 677.662842 2922.140381 677.856201 L 2922.140381 677.86499 C 2922.140381 678.180054 2922.283936 678.423584 2922.571045 678.595703 C 2922.858154 678.7677 2923.318115 678.912354 2923.950928 679.029541 L 2925.225342 679.266479 C 2926.133545 679.436157 2926.883545 679.676147 2927.475342 679.986694 C 2928.067139 680.297241 2928.508057 680.697021 2928.798096 681.186035 C 2929.088135 681.675049 2929.233154 682.273438 2929.233154 682.981323 L 2929.233154 682.990112 C 2929.233154 683.87439 2929.014893 684.642944 2928.578369 685.295776 C 2928.141846 685.948486 2927.510498 686.453369 2926.684326 686.810425 C 2925.858154 687.16748 2924.862061 687.345947 2923.696045 687.345947 Z M 2909.05957 687.345947 C 2908.297852 687.345947 2907.61084 687.240479 2906.998535 687.029541 C 2906.38623 686.818604 2905.861816 686.510986 2905.425293 686.106689 C 2904.98877 685.702393 2904.654785 685.210205 2904.42334 684.630127 C 2904.191895 684.050049 2904.076172 683.393677 2904.076172 682.660889 L 2904.076172 682.634521 L 2907.644531 682.634521 L 2907.644531 682.6521 C 2907.644531 682.986206 2907.700195 683.270386 2907.811523 683.504883 C 2907.922852 683.73938 2908.081055 683.918213 2908.286133 684.04126 C 2908.491211 684.164307 2908.731445 684.22583 2909.006836 684.22583 C 2909.422852 684.22583 2909.737793 684.095459 2909.95166 683.834717 C 2910.165527 683.573975 2910.272461 683.194458 2910.272461 682.696045 L 2910.272461 674.317383 L 2913.999023 674.317383 L 2913.999023 682.722412 C 2913.999023 683.70105 2913.805664 684.534546 2913.418945 685.223145 C 2913.032227 685.911743 2912.471191 686.437744 2911.73584 686.801025 C 2911.000488 687.164307 2910.108398 687.345947 2909.05957 687.345947 Z"/>
        </g>
        <g id="Regular-S">
            <path id="path15" fill="none" stroke="#000000" stroke-width="0.5" d="M 1429.581543 701.908203 L 1470.060059 701.908203 C 1478.263062 701.908203 1482.364746 697.757813 1482.364746 689.457031 L 1482.364746 655.423828 C 1482.364746 650.052734 1481.778809 647.708984 1478.409546 644.242188 L 1458.145874 623.539063 C 1454.972046 620.267578 1452.335449 619.583984 1447.647949 619.583984 L 1429.581543 619.583984 C 1421.378418 619.583984 1417.325562 623.734375 1417.325562 632.035156 L 1417.325562 689.457031 C 1417.325562 697.806641 1421.378418 701.908203 1429.581543 701.908203 Z M 1429.92334 694.876953 C 1426.26123 694.876953 1424.356934 692.875 1424.356934 689.359375 L 1424.356934 632.132813 C 1424.356934 628.617188 1426.26123 626.615234 1429.972046 626.615234 L 1446.427246 626.615234 L 1446.427246 648.34375 C 1446.427246 653.421875 1449.015137 656.009766 1454.09314 656.009766 L 1475.284546 656.009766 L 1475.284546 689.359375 C 1475.284546 692.875 1473.380249 694.876953 1469.71814 694.876953 Z M 1454.92334 649.417969 C 1453.556152 649.417969 1452.970215 648.832031 1452.970215 647.464844 L 1452.970215 627.933594 L 1473.966187 649.417969 Z"/>
            <path id="path1" fill="#000000" fill-rule="evenodd" stroke="none" d="M 1465.307129 691 L 1465.307129 678.317383 L 1466.845215 678.317383 L 1474.161621 688.810303 L 1473.063843 688.19397 L 1473.867676 688.19397 L 1473.867676 678.317383 L 1475.432129 678.317383 L 1475.432129 691 L 1473.894043 691 L 1466.577515 680.540649 L 1467.675293 681.157104 L 1466.871582 681.157104 L 1466.871582 691 Z M 1454.880371 691.2948 C 1453.667969 691.2948 1452.628052 691.024048 1451.760498 690.482422 C 1450.892822 689.940918 1450.225952 689.172485 1449.759766 688.177124 C 1449.293579 687.181763 1449.060425 686.010498 1449.060425 684.663086 L 1449.060425 684.645508 C 1449.060425 683.286987 1449.296387 682.112915 1449.768311 681.123291 C 1450.240356 680.133667 1450.911499 679.369507 1451.78186 678.830688 C 1452.652222 678.29187 1453.685059 678.022583 1454.880371 678.022583 C 1456.081299 678.022583 1457.116943 678.29187 1457.987183 678.830688 C 1458.857422 679.369507 1459.526978 680.135132 1459.995972 681.127441 C 1460.464966 682.119873 1460.699463 683.29248 1460.699463 684.645508 L 1460.699463 684.663086 C 1460.699463 686.010498 1460.466431 687.18042 1460.000244 688.172974 C 1459.533936 689.165527 1458.865845 689.93396 1457.995728 690.478271 C 1457.12561 691.022705 1456.087158 691.2948 1454.880371 691.2948 Z M 1454.880371 689.835815 C 1455.747925 689.835815 1456.495117 689.622192 1457.122192 689.194824 C 1457.749268 688.767578 1458.232666 688.166016 1458.57251 687.390259 C 1458.912354 686.614624 1459.082275 685.705566 1459.082275 684.663086 L 1459.082275 684.645508 C 1459.082275 683.591675 1458.912354 682.678223 1458.572388 681.905273 C 1458.232422 681.132324 1457.748901 680.535156 1457.121582 680.11377 C 1456.494385 679.692261 1455.747314 679.481567 1454.880371 679.481567 C 1454.019043 679.481567 1453.27478 679.692261 1452.647339 680.11377 C 1452.02002 680.535156 1451.534912 681.132324 1451.192017 681.905151 C 1450.848999 682.677856 1450.677612 683.591309 1450.677612 684.645508 L 1450.677612 684.663086 C 1450.677612 685.705811 1450.844849 686.61499 1451.179443 687.390747 C 1451.513916 688.166504 1451.994751 688.767944 1452.621948 689.195068 C 1453.249146 689.622314 1454.001953 689.835815 1454.880371 689.835815 Z M 1440.375122 691.2948 C 1439.449829 691.2948 1438.642944 691.144409 1437.954102 690.843384 C 1437.265381 690.542358 1436.720215 690.126831 1436.318604 689.59668 C 1435.91687 689.066528 1435.684082 688.458008 1435.620239 687.770874 L 1435.61145 687.672974 L 1437.193481 687.672974 L 1437.202637 687.770874 C 1437.244751 688.192749 1437.407837 688.557495 1437.691895 688.865112 C 1437.975952 689.172729 1438.356445 689.411377 1438.833496 689.581177 C 1439.310425 689.750977 1439.853638 689.835815 1440.463013 689.835815 C 1441.038818 689.835815 1441.550903 689.743896 1441.998901 689.559814 C 1442.447021 689.375854 1442.799683 689.119873 1443.056763 688.791992 C 1443.313965 688.464111 1443.442505 688.08606 1443.442505 687.658081 L 1443.442505 687.649292 C 1443.442505 687.120728 1443.249146 686.676758 1442.862427 686.317627 C 1442.475708 685.958496 1441.845825 685.682251 1440.972778 685.488892 L 1439.566528 685.181274 C 1438.296631 684.900269 1437.372803 684.465698 1436.7948 683.877686 C 1436.216797 683.289551 1435.927856 682.5354 1435.927856 681.615356 L 1435.927856 681.606567 C 1435.933716 680.903564 1436.12561 680.282837 1436.503784 679.744141 C 1436.881836 679.205566 1437.40625 678.783936 1438.077148 678.47937 C 1438.748047 678.174805 1439.519897 678.022583 1440.3927 678.022583 C 1441.235596 678.022583 1441.9823 678.173218 1442.63269 678.474731 C 1443.283081 678.776245 1443.800293 679.182251 1444.184326 679.692871 C 1444.568359 680.203491 1444.781128 680.776489 1444.822388 681.411987 L 1444.831177 681.5354 L 1443.249146 681.5354 L 1443.231567 681.420776 C 1443.172729 681.043091 1443.02002 680.708862 1442.773682 680.418213 C 1442.527344 680.127441 1442.199097 679.897217 1441.789063 679.727661 C 1441.37915 679.557983 1440.898926 679.475952 1440.348755 679.481567 C 1439.819824 679.481567 1439.344482 679.563721 1438.922607 679.728027 C 1438.500732 679.892334 1438.165649 680.128296 1437.917358 680.435791 C 1437.669189 680.743286 1437.545044 681.118896 1437.545044 681.562622 L 1437.545044 681.571411 C 1437.545044 682.075806 1437.73291 682.500488 1438.108765 682.845703 C 1438.484619 683.190918 1439.102295 683.457153 1439.962036 683.644409 L 1441.368286 683.960327 C 1442.252197 684.153442 1442.963745 684.405273 1443.50293 684.71582 C 1444.042236 685.026367 1444.436401 685.406006 1444.685791 685.854858 C 1444.935059 686.303589 1445.059692 686.833496 1445.059692 687.444458 L 1445.059692 687.453247 C 1445.059692 688.242432 1444.866577 688.923584 1444.480225 689.496704 C 1444.093872 690.069824 1443.549316 690.512695 1442.846313 690.825562 C 1442.143311 691.138428 1441.31958 691.2948 1440.375122 691.2948 Z M 1427.383179 691.2948 C 1426.832397 691.2948 1426.34314 691.215698 1425.915405 691.057495 C 1425.487671 690.899292 1425.12439 690.676636 1424.825562 690.389526 C 1424.526733 690.102417 1424.292358 689.765503 1424.122437 689.378784 C 1423.952515 688.992065 1423.849976 688.57019 1423.814819 688.113159 L 1423.80603 687.990112 L 1425.388062 687.990112 L 1425.396851 688.078003 C 1425.432007 688.394409 1425.525757 688.685913 1425.678101 688.952515 C 1425.830444 689.219116 1426.047241 689.432983 1426.328491 689.594116 C 1426.609741 689.755249 1426.958374 689.835815 1427.37439 689.835815 C 1428.077515 689.835815 1428.613647 689.632202 1428.982788 689.224976 C 1429.351929 688.817749 1429.536499 688.227417 1429.536499 687.453979 L 1429.536499 678.317383 L 1431.11853 678.317383 L 1431.11853 687.471558 C 1431.11853 688.268433 1430.970581 688.952515 1430.674683 689.523804 C 1430.378784 690.095093 1429.952515 690.533081 1429.395874 690.837769 C 1428.839233 691.142456 1428.168335 691.2948 1427.383179 691.2948 Z"/>
        </g>
        <g id="Ultralight-S">
            <path id="path16" fill="none" stroke="#000000" stroke-width="0.5" d="M 539.039001 701.181641 L 580.38031 701.181641 C 586.948669 701.181641 590.36908 697.712402 590.36908 691.182617 L 590.36908 653.244141 C 590.36908 650.506836 589.874023 649.25293 588.230408 647.602539 L 563.3349 622.67627 C 561.705017 620.994141 560.385193 620.492188 557.695679 620.492188 L 539.039001 620.492188 C 532.606873 620.492188 529.05365 623.961426 529.05365 630.491211 L 529.05365 691.182617 C 529.05365 697.71582 532.515991 701.181641 539.039001 701.181641 Z M 539.153687 698.963867 C 533.947693 698.963867 531.271423 696.280762 531.271423 691.084961 L 531.271423 630.588867 C 531.271423 625.620117 533.947693 622.709961 539.157227 622.709961 L 558.609314 622.709961 L 558.609314 647.163086 C 558.609314 650.788086 560.425171 652.286255 563.732422 652.286255 L 588.193298 652.286255 L 588.193298 691.084961 C 588.193298 696.280762 585.471619 698.963867 580.265503 698.963867 Z M 563.881287 650.099121 C 561.651306 650.099121 560.792908 649.240723 560.792908 647.056152 L 560.792908 623.301758 L 587.601501 650.099121 Z"/>
            <path id="path2" fill="#000000" fill-rule="evenodd" stroke="none" d="M 574.949707 692 L 574.949707 679.317383 L 575.439148 679.317383 L 584.00531 691.382324 L 583.596375 691.151733 L 583.884216 691.151733 L 583.884216 679.317383 L 584.326782 679.317383 L 584.326782 692 L 583.9151 692 L 575.271179 679.844849 L 575.680176 680.075073 L 575.392334 680.075073 L 575.392334 692 Z M 564.751038 692.184692 C 563.598267 692.184692 562.604431 691.92041 561.76947 691.391846 C 560.934509 690.863403 560.290833 690.111816 559.83844 689.137207 C 559.385986 688.162598 559.15979 687.004517 559.15979 685.66272 L 559.15979 685.645142 C 559.15979 684.307983 559.386292 683.152466 559.839233 682.178711 C 560.292175 681.204956 560.937439 680.453735 561.774963 679.925293 C 562.612488 679.396851 563.604248 679.13269 564.750366 679.13269 C 565.90271 679.13269 566.896301 679.396851 567.731201 679.925293 C 568.566101 680.453735 569.209839 681.205078 569.662476 682.179199 C 570.115112 683.15332 570.341431 684.308594 570.341431 685.645142 L 570.341431 685.66272 C 570.341431 687.004517 570.115234 688.162598 569.662781 689.136841 C 569.210388 690.111206 568.566711 690.862793 567.731812 691.391602 C 566.896912 691.920288 565.90332 692.184692 564.751038 692.184692 Z M 564.751038 691.766357 C 565.797302 691.766357 566.704346 691.514526 567.47229 691.010864 C 568.240173 690.50708 568.835938 689.799316 569.259521 688.887329 C 569.683167 687.975342 569.894958 686.900513 569.894958 685.66272 L 569.894958 685.645142 C 569.894958 684.40625 569.683105 683.331055 569.259338 682.419556 C 568.835571 681.508179 568.239685 680.802124 567.471741 680.301636 C 566.703735 679.80127 565.796631 679.551025 564.750366 679.551025 C 563.704712 679.551025 562.796631 679.80127 562.026123 680.301636 C 561.255615 680.802124 560.659668 681.508179 560.238342 682.419556 C 559.816956 683.331055 559.606262 684.40625 559.606262 685.645142 L 559.606262 685.66272 C 559.606262 686.900757 559.817932 687.97583 560.241272 688.887939 C 560.664612 689.800049 561.261658 690.507813 562.03241 691.01123 C 562.803101 691.514648 563.709351 691.766357 564.751038 691.766357 Z M 550.855896 692.184692 C 550.026245 692.184692 549.280762 692.040527 548.619324 691.752319 C 547.957886 691.464111 547.424194 691.065308 547.01825 690.555908 C 546.612305 690.046509 546.37738 689.464355 546.313477 688.809326 L 546.304688 688.719482 L 546.748535 688.719482 L 546.757324 688.809326 C 546.814453 689.369141 547.03064 689.872314 547.405823 690.318848 C 547.781006 690.765381 548.268188 691.118286 548.867371 691.377563 C 549.466614 691.636841 550.134216 691.766357 550.870178 691.766357 C 551.629089 691.766357 552.29895 691.632568 552.879883 691.365112 C 553.460815 691.097534 553.915283 690.733643 554.243347 690.273438 C 554.571411 689.813354 554.735474 689.301025 554.735474 688.736572 L 554.735474 688.719849 C 554.735474 688.016602 554.465759 687.424683 553.926331 686.94397 C 553.386902 686.463379 552.523499 686.083252 551.335999 685.803467 L 550.226807 685.541992 C 548.94812 685.234863 548.030029 684.839233 547.472656 684.354858 C 546.915283 683.870483 546.636597 683.239746 546.636597 682.462646 L 546.636597 682.445801 C 546.637085 681.834229 546.812744 681.27832 547.163574 680.778076 C 547.514404 680.27771 547.996643 679.878418 548.610413 679.580078 C 549.224121 679.28186 549.923767 679.13269 550.709412 679.13269 C 551.504517 679.13269 552.205872 679.267822 552.813416 679.537964 C 553.420959 679.808228 553.908569 680.171387 554.276245 680.627441 C 554.643921 681.083618 554.856384 681.596069 554.913696 682.164795 L 554.922485 682.248291 L 554.478516 682.248291 L 554.469177 682.173096 C 554.410767 681.688599 554.215149 681.248291 553.882324 680.852295 C 553.5495 680.456177 553.112671 680.140259 552.57196 679.904297 C 552.03125 679.668335 551.409302 679.550659 550.706116 679.551025 C 550.010559 679.551025 549.389709 679.681274 548.843567 679.941772 C 548.297424 680.202393 547.867432 680.551025 547.553711 680.987793 C 547.239929 681.424683 547.083069 681.909546 547.083069 682.442383 L 547.083069 682.459351 C 547.083069 683.123657 547.339355 683.664551 547.851929 684.082275 C 548.364502 684.499878 549.196594 684.845337 550.348206 685.118896 L 551.457275 685.380859 C 552.330688 685.584839 553.041748 685.841553 553.590393 686.151001 C 554.139099 686.460327 554.541565 686.825439 554.797729 687.246338 C 555.053955 687.667114 555.182068 688.153198 555.182068 688.704468 L 555.182068 688.721191 C 555.182068 689.38269 554.998291 689.974487 554.630798 690.496582 C 554.263306 691.018555 553.755127 691.43042 553.106201 691.732178 C 552.457275 692.033813 551.707214 692.184692 550.855896 692.184692 Z M 538.358826 692.184692 C 537.885559 692.184692 537.44989 692.111938 537.051697 691.966431 C 536.653564 691.820923 536.30835 691.61499 536.016174 691.348511 C 535.723999 691.082031 535.49353 690.770142 535.324707 690.412598 C 535.155945 690.055054 535.061829 689.664429 535.042419 689.240601 L 535.041321 689.211182 L 535.485352 689.211182 L 535.486267 689.237671 C 535.516479 689.716187 535.658142 690.14624 535.911133 690.52771 C 536.164124 690.909302 536.502686 691.211182 536.926819 691.433228 C 537.350952 691.655396 537.828003 691.766357 538.358093 691.766357 C 539.294067 691.766357 540.02655 691.484253 540.555603 690.920166 C 541.084656 690.355957 541.349121 689.576416 541.349121 688.581421 L 541.349121 679.317383 L 541.792969 679.317383 L 541.792969 688.700684 C 541.792969 689.411255 541.653259 690.028076 541.373718 690.551025 C 541.094238 691.073853 540.697815 691.476929 540.184509 691.76001 C 539.671204 692.043091 539.062683 692.184692 538.358826 692.184692 Z"/>
        </g>
    </g>
</svg>
